<?xml version="1.0" encoding="utf-8"?>
<!-- Generator: Adobe Illustrator 16.0.0, SVG Export Plug-In . SVG Version: 6.00 Build 0)  -->
<!DOCTYPE svg PUBLIC "-//W3C//DTD SVG 1.1//EN" "http://www.w3.org/Graphics/SVG/1.1/DTD/svg11.dtd">
<svg version="1.1" id="Layer_1" xmlns="http://www.w3.org/2000/svg" xmlns:xlink="http://www.w3.org/1999/xlink" x="0px" y="0px"
	 width="561.26px" height="243.779px" viewBox="2262.993 0 561.26 243.779" enable-background="new 2262.993 0 561.26 243.779"
	 xml:space="preserve">
<g>
	<path opacity="0.26" fill="#251600" d="M2320.625,56.354c0,0,322.088-83.099,269.68-10.823c-47.034,64.84,87.75,7.905,116.604-1.02
		c50.174-15.523,70.369-7.975,100.511-6.516c0,0-95.001,24.135-116.415,49.984c-9.917,11.966,58.534,7.24,107.207,13.156
		c0,0-95.373,12.496-117.739,21.704c-22.356,9.208,67.549,11.377,94.522,19.269c0,0-21.104,0.998-85.965,40.583
		c-32.639,19.923-51.297,11.84-146.006-3.289c-54.396-8.68-127.05-10.64-199.292,15.129
		C2343.733,194.531,2396.575,91.662,2320.625,56.354z"/>
	<path opacity="0.26" fill="#251600" d="M2270.232,31.232c3.073-4.72,7.237-7.446,11.471-8.093l0,0
		c7.71-1.124,14.496,3.193,19.585,7.189l0,0c1.982,1.593,3.71,3.198,5.088,4.573l0,0c1.195-1.768,2.74-3.908,4.559-6.12l0,0
		c4.5-5.333,10.455-11.363,18.088-12.729l0,0c4.387-0.782,9.338,0.604,13.309,4.575l0,0c2.747,2.64,4.443,5.939,4.906,9.324l0,0
		c0.654,4.868-0.938,9.355-3.16,13.263l0,0c-2.26,3.925-5.281,7.445-8.309,10.502l0,0c-3.836,3.838-7.695,6.912-10.041,8.663l0,0
		l24.619,129.264c4.688,1.891,15.985,6.822,23.49,13.721l0,0c3.178,3.009,5.951,6.504,6.673,11.173l0,0
		c0.658,4.229-1.115,8.731-4.627,12.077l0,0c-3.041,3.008-6.544,4.758-10.054,5.316l0,0c-9.157,1.348-17.279-4.121-23.332-9.252l0,0
		c-2.283-1.965-4.279-3.958-5.879-5.676l0,0c-2.158,5.031-5.723,12.086-10.631,17.35l0,0c-2.848,3-6.314,5.533-10.564,6.246l0,0
		c-4.64,0.799-9.708-1.076-14.135-5.539l0,0c-2.115-2.074-3.447-4.797-3.816-7.553l0,0c-0.596-4.506,0.886-8.626,2.875-12.357l0,0
		c2.033-3.734,4.75-7.194,7.473-10.247l0,0c3.472-3.878,6.979-7.058,9.086-8.885l0,0l-25.087-131.162
		c-4.084-1.631-12.932-5.616-19.11-12.097l0,0c-2.711-2.912-5.033-6.507-5.669-10.955l0,0c-0.011-0.034-0.011-0.067-0.017-0.098l0,0
		C2266.454,39.681,2267.525,35.255,2270.232,31.232L2270.232,31.232z M2321.378,60.457l2.089,3.551L2321.378,60.457L2321.378,60.457
		z"/>
	<path fill="#232020" d="M2329.667,43.896c0,0,322.099-83.095,269.679-10.819c-47.026,64.843,87.75,7.912,116.616-1.022
		c50.165-15.522,70.357-7.975,100.499-6.512c0,0-94.998,24.135-116.409,49.986c-9.918,11.97,58.533,7.235,107.203,13.154
		c0,0-95.372,12.498-117.731,21.697c-22.36,9.217,67.551,11.389,94.512,19.278c0,0-21.099,0.994-85.964,40.58
		c-32.632,19.923-51.299,11.84-146.006-3.281c-54.391-8.692-127.044-10.645-199.287,15.121
		C2352.778,182.079,2405.625,79.21,2329.667,43.896z"/>
	<g>
		<path fill="#FBB515" d="M2639.059,160.756c0,0-186.352-42.945-277.172,10.44c95.535-65.658,280.71-18.181,280.71-18.181
			c39.804,9.82,57.039-3.979,63.923-13.517C2706.52,139.499,2686.635,171.544,2639.059,160.756z"/>
		<path fill="#FBB515" d="M2543.228,126.126c0.118,0.283,0.172,0.537,0.172,0.771c0,0.343-0.415,0.73-1.241,1.152
			c-0.832,0.432-1.361,0.816-1.586,1.159c-1.15,2.002-2.033,3.889-2.661,5.656c-0.286,0.805-0.832,1.089-1.629,0.861
			c-0.802-0.399-1.663-1.261-2.567-2.57c-1.835-0.637-2.955-1.461-3.351-2.49c-1.937,0.805-3.515,1.915-4.716,3.343
			c-0.401-0.051-0.8,0.229-1.198,0.856c-0.401,0.631-0.685,0.946-0.856,0.946c-0.636,0-1.689-1.316-3.174-3.945
			c-0.228-0.114-0.428-0.286-0.602-0.514c0.174-0.687,0.254-1.086,0.254-1.2c-0.511,0.228-0.969,0.346-1.367,0.346
			c-0.406,0-0.743-0.118-1.029-0.346c-0.909-1.374-2.174-2.084-3.771-2.143c0-0.112-0.145-0.318-0.43-0.602
			c-0.287-0.281-0.34-0.569-0.166-0.858c1.426-0.396,2.137-1.254,2.137-2.57c0.286,0,0.658-0.026,1.115-0.083
			c0,0.855,0.262,1.003,0.771,0.426h0.091l-1.977-1.889c0-0.572,0.262-1.316,0.775-2.23c0.228,0.118,0.428,0.172,0.602,0.172
			c0.049-0.054,0.08-0.311,0.08-0.771c-0.059-0.171-0.313-0.284-0.772-0.343c-0.454-0.057-0.685-0.198-0.685-0.428
			c0.171-2.688-0.372-4.261-1.626-4.718c-0.12-0.171-0.286-0.632-0.511-1.37c0.225-0.229,0.625-0.257,1.195-0.085
			c0.569,0.112,1.029,0.112,1.369,0c0.348-0.172,0.775-0.345,1.289-0.521c0.57-0.163,1.027-0.052,1.372,0.35
			c0,0.172,0.115,0.284,0.345,0.343c0.225,0.168,0.429,0.143,0.597-0.086c0.517-0.86,2.316-1.743,5.403-2.657
			c1.088-0.345,2.422-1.121,4.032-2.313v-3.518c0-3.089-0.062-3.804-0.174-2.143c0.057-0.802,0.398-1.214,1.024-1.248
			c0.631-0.025,1.118-0.295,1.466-0.811c-0.744,0.114-1.522-0.115-2.316-0.686v-8.577c-0.235,0.116-0.772,0.6-1.634,1.461
			c-0.629,0.631-0.941,1.255-0.941,1.879v0.603c0,0.229,0.163,0.477,0.477,0.733c0.307,0.254,0.465,0.47,0.465,0.642
			c0,0.514-0.537,0.717-1.629,0.602c-0.342-0.174-0.714-0.714-1.113-1.631c0-1.257,0.6-2.482,1.801-3.688
			c0.965-0.969,1.969-1.972,3.006-3.001c0.511-0.339,1.078-0.909,1.712-1.717c0.174-0.167,0.449-0.167,0.854,0
			c0.401,0.117,0.684,0.203,0.86,0.262c0.398,0,0.544-0.288,0.426-0.861c-0.629-0.229-0.832-0.631-0.603-1.201
			c1.092-1.086,2.319-2.631,3.691-4.628c0.112-0.057,0.313,0.114,0.594,0.513c0.064,1.484,0.088,6.119,0.088,13.891l-1.794,1.806
			l0.938,0.597c0.343,0.23,0.626,0.257,0.855,0.085v8.832l-1.885,1.377c1.252,0.222,1.885,0.623,1.885,1.195v6.002h-1.54
			c0.117,0.058,0.332,0.315,0.645,0.772c0.311,0.455,0.615,0.686,0.896,0.686v8.919c0.629,0.917,1.632,1.743,3.004,2.487
			c0.401-0.168,0.689-0.26,0.861-0.26c0.229,0,0.337,0.092,0.337,0.26c-0.054-0.569,0.433-1.112,1.463-1.629L2543.228,126.126z
			 M2532.512,117.804c0.112-0.29,0.026-0.482-0.26-0.6c-0.056-0.059-0.26-0.059-0.599,0c-0.343,0-0.544-0.026-0.6-0.088
			c-0.516-0.573-0.719-1.458-0.604-2.659c0.174-1.712,0.201-2.686,0.089-2.915c-1.196,0.803-3.084,1.661-5.659,2.573v2.744
			c0,2-0.517,3.254-1.543,3.771c0.855,0.289,1.369,0.717,1.543,1.289v3.859l1.714,1.803c0.056,0.109-0.229,0.658-0.854,1.627
			c0.112,0,0.228,0.031,0.343,0.087c0.452-0.171,0.682-0.228,0.682-0.171c-0.115-0.517,0-0.773,0.345-0.773
			c0.115,0,0.303,0.06,0.56,0.17c0.257,0.114,0.441,0.171,0.557,0.171c0.109,0,0.339,0.146,0.687,0.433
			c0.34,0.284,0.655,0.425,0.941,0.425c0.23,0,0.455-0.114,0.686-0.341c-0.23-1.774,0.313-3.347,1.625-4.719h-0.51
			c-0.573-0.168-0.939-0.566-1.115-1.2c-0.055-0.396-0.055-1.048,0-1.974c0.059-0.571,0.112-1.159,0.176-1.756
			c0.046-0.602,0.354-0.984,0.891-1.159C2532.148,118.229,2532.445,118.03,2532.512,117.804z"/>
		<path fill="#FBB515" d="M2566.553,118.575c0.168,0.341-0.027,0.583-0.604,0.73c-0.569,0.143-1.025,0.186-1.372,0.127
			c-0.68-0.229-1.084-0.37-1.193-0.427c-0.403,0-0.719,0.169-0.948,0.509c-3.542-0.34-6.602,0.941-9.177,3.865
			c0.179,0.572,0.403,0.86,0.689,0.86c0.175,0,0.429-0.104,0.768-0.305c0.351-0.2,0.578-0.299,0.693-0.299
			c0.227,0,0.425,0.086,0.599,0.259c0.229,0.798-0.197,1.514-1.292,2.14c-1.316,0.117-2.172-0.174-2.564-0.856v1.37
			c0.339,0.174,0.738,0.46,1.195,0.858c0.974,0.631,2.063,1.318,3.261,2.055c0.224-0.108,0.885-0.567,1.971-1.367
			c0.802-0.572,1.481-0.735,2.063-0.514c0.05,0.339,0.087,0.915,0.087,1.714c-1.034,0.113-2.037,0.601-3.006,1.456l-2.749,2.575
			c-1.251,1.597-1.909,2.312-1.968,2.14c-0.23,0.398-0.886,0.029-1.975-1.118l-1.022-1.021c-0.229-0.171-0.286-0.578-0.173-1.204
			c-0.113,0.059-0.321,0.088-0.599,0.088c-0.231,0-0.517-0.029-0.862-0.088c-1.085-0.566-2.685-1.543-4.803-2.914
			c-0.398-0.912-0.567-1.456-0.514-1.627c0.915-0.112,1.463-0.829,1.629-2.146c0.062-0.345,0.083-1.658,0.083-3.944
			c0.18-0.06,0.66-0.145,1.465-0.254c0.57-0.121,0.859-0.434,0.859-0.949c-0.351,0.117-0.72,0.032-1.118-0.257
			c-0.628-0.455-0.977-0.685-1.026-0.685c-0.289-0.115-0.429-0.543-0.429-1.289v-0.343c0-0.971-0.401-1.454-1.206-1.454
			c-0.283,0.058-0.599-0.055-0.941-0.346c0.174-0.856,0.602-1.343,1.289-1.458c0.683-0.112,1.396-0.225,2.14-0.342
			c1.027-0.283,1.77-0.429,2.23-0.429c0.575,0,1.115,0.172,1.626,0.517c0.12-0.855,1.228-1.629,3.347-2.318l4.46-2.399
			c0.225,0,0.515,0.086,0.859,0.258c0.339,0.168,0.569,0.168,0.688,0c-0.063-0.347-0.261-0.828-0.603-1.459
			c1.313-0.625,2.058-0.743,2.231-0.34l0.087,2.058c0.909,1.77,2.31,4.316,4.196,7.627
			C2565.491,117.458,2566.034,117.776,2566.553,118.575z M2557.464,116.771l-1.2,0.089c-0.454-0.228-0.886-0.685-1.292-1.37
			c-0.57-0.863-0.942-1.374-1.107-1.545l-1.714,0.855v6.516c1.142-0.686,2.88-1.597,5.226-2.74
			c-0.228-0.175-0.443-0.331-0.645-0.475c-0.195-0.14-0.243-0.297-0.125-0.472C2556.775,117.346,2557.061,117.06,2557.464,116.771z"
			/>
		<path fill="#FBB515" d="M2629.058,99.282c0.057,2.915-0.54,5.207-1.791,6.858c-0.064,0-0.349-0.057-0.861-0.172
			c-0.29,0-0.439,0.206-0.439,0.596c0.067,0.175,0.091,0.348,0.091,0.522c0,0.111-0.023,0.259-0.091,0.424
			c-0.222,0.284-0.388,0.576-0.502,0.859c-0.292,0.118-0.744,0.443-1.369,0.99c-0.638,0.537-1.095,0.81-1.378,0.81
			c-0.286,0-0.569-0.144-0.858-0.427c0.059-0.347-0.054-0.828-0.34-1.459c-0.403,0.171-0.573,0.511-0.519,1.03v1.629
			c-2.116,1.486-5.488,2.431-10.12,2.829l-0.768-0.685c-0.349,0.685-1.03,1.027-2.06,1.027c-1.03,0-2.116-0.139-3.258-0.429
			c-0.286-0.059-1.08-0.171-2.405-0.339c0.06,0.339-0.01,0.756-0.205,1.237c-0.206,0.487-0.305,0.816-0.305,0.988
			c0,0.229,0.027,0.402,0.083,0.516c-1.426,0.912-2.055,1.912-1.88,3.001c0.685-0.746,1.048-1.116,1.111-1.116
			c0.115,0,0.257,0.084,0.431,0.255l0.765,0.604c-0.055,1.316-0.079,3.29-0.079,5.918c0.681,0.115,1.597,0.53,2.743,1.242
			c1.14,0.716,1.624,1.074,1.459,1.074c0-0.404,0.368-0.976,1.115-1.714c0.737-0.746,1.169-1.29,1.283-1.631
			c0.056-0.057,0.145-0.086,0.257-0.086c0.404,0,0.861,0.227,1.374,0.685c0.226,0.227,0.338,0.459,0.338,0.688
			c0,0.17-0.252,0.438-0.768,0.813c-0.52,0.372-0.773,0.672-0.773,0.901c-0.46,0.517-1.434,1.941-2.915,4.284
			c-0.738,1.432-1.802,3.258-3.172,5.488l-2.23-2.23c-0.918-0.744-1.769-1.143-2.576-1.201c-0.628-0.566-1.649-1.112-3.083-1.626
			c-1.6-0.517-2.683-0.94-3.261-1.286c-0.283,0.06-0.487,0.06-0.594,0c0.056,0.174,0.086-0.171,0.086-1.027
			c-0.12-0.115-0.233-0.174-0.346-0.174c-0.403,0-0.803,0.403-1.2,1.201c-0.457-0.342-0.914-0.517-1.372-0.517
			c-0.229,0-0.543,0.057-0.949,0.175c-0.396,0.115-0.677,0.171-0.856,0.171c-0.623,0-1.142-0.461-1.54-1.373
			c-0.345,0.057-0.455,0.258-0.345,0.601c0.057,0.227,0.088,0.402,0.088,0.518c0,0.17-0.031,0.281-0.088,0.34
			c-2.625,2.174-3.943,3.633-3.943,4.376c0,0.171,0.073,0.343,0.218,0.511c0.142,0.177,0.813,0.912,2.013,2.23
			c-0.173-0.513-0.028-1.029,0.432-1.545c0.398-0.057,0.772-0.082,1.115-0.082c0.794,0,1.481,0.228,2.051,0.683
			c0.348,0.626,0.522,1.398,0.522,2.319l-0.773,0.425c-0.459-1.145-0.806-1.718-1.027-1.718c-0.174,0-0.342,0.063-0.519,0.177
			c-0.229,0.455-0.677,1.055-1.329,1.801c-0.653,0.737-0.894,1.486-0.73,2.23l-0.511,0.511c-0.458-0.629-1.26-1.567-2.401-2.829
			c0.342-0.686,0.519-1.258,0.519-1.713c-1.318,0-2.064-0.232-2.23-0.689c-0.463-1.598-0.631-2.773-0.523-3.515
			c0.293-1.768,0.633-2.858,1.043-3.257c0.224-0.627,0.9-1.659,2.048-3.084c0.457-0.233,1.916-0.861,4.373-1.888
			c0.398,0.055,0.917,0.254,1.54,0.599c0.295-0.8,1.146-1.272,2.572-1.413c1.427-0.146,2.288-0.446,2.579-0.905
			c0.056-0.049,0.385-0.258,0.983-0.599c0.597-0.343,0.902-0.744,0.902-1.199c0-0.112-0.032-0.313-0.091-0.604l-0.166-0.083
			c-0.808,0.918-1.549,1.26-2.228,1.029v-2.572c0.28,0,0.824-0.428,1.631-1.287c0-0.115-0.548-0.46-1.631-1.025v-3.518
			c-0.292-0.118-0.829-0.118-1.638,0c-0.679,0.171-1.252,0.112-1.706-0.171c-0.637,0.342-1.484,1.085-2.575,2.229l0.169,0.084
			c0.288-0.573,0.689-0.856,1.197-0.856c0.228,0,0.522,0.083,0.856,0.26c0.748,0.74,0.832,1.428,0.26,2.054
			c-0.909,1.027-1.91,1.429-3.001,1.198c-0.11-0.171-0.423-0.514-0.939-1.024c-0.406-0.345-0.604-0.714-0.604-1.115
			c0-1.826,0.886-3.204,2.662-4.113c0.566,0,1.44-0.228,2.612-0.69c1.174-0.452,2.072-0.655,2.707-0.599
			c0.171-0.172,0.229-0.891,0.171-2.146c0-1.03,0.168-1.54,0.508-1.54c0.231,0,0.458,0.054,0.688,0.174
			c0.743-0.401,1.118-0.805,1.118-1.206c0,0.115-0.23-0.228-0.688-1.024l-1.797,0.425v-7.975l1.366-0.683
			c0.454-0.232,0.661-0.483,0.604-0.773c-0.634-0.171-1.292-0.628-1.971-1.372v-5.912l-1.375-0.434
			c-0.512,0.401-1.515,1.059-2.998,1.974c-0.688,0.343-1.603,1.254-2.747,2.744c0.062,0.114,0.142,0.176,0.26,0.176
			c0.111-0.062,0.241-0.149,0.386-0.262c0.142-0.115,0.27-0.142,0.382-0.088c0.685,0.629,0.944,1.232,0.773,1.802
			c-0.512,0.8-1.14,1.201-1.895,1.201c-0.393,0-0.791-0.083-1.195-0.262c-0.969-1.14-1.455-1.856-1.455-2.138
			c0-0.288,0.08-0.516,0.257-0.691c0-0.792,0.487-1.354,1.457-1.666c0.975-0.311,1.461-0.792,1.461-1.418
			c1.257-0.855,3.112-2.11,5.576-3.774l0.938,0.086c0.175-0.685,0.715-1.514,1.627-2.486c0.742-0.688,1.802-1.801,3.172-3.344
			c0.513-0.686,0.976-1.112,1.374-1.287c-0.167-0.401-0.056-0.714,0.341-0.943c0.114,0.056,0.488,0,1.117-0.175
			c0.569-0.106,0.859,0.123,0.859,0.686c-0.29,0.35-0.432,0.717-0.432,1.12c0,0.514,0.406,1.027,1.196,1.538
			c1.089,0.746,1.634,1.18,1.634,1.294c2.286,0.052,3.944-0.2,4.974-0.774l0.856,0.857c0.515-0.061,0.775-0.256,0.775-0.602v-1.115
			c0.055-0.342,0.34-0.483,0.851-0.427c0.805-0.115,1.874-0.542,3.224-1.284c1.342-0.744,2.383-1.17,3.122-1.293
			c0-0.564,0.322-0.851,0.951-0.851h1.451c0.343-0.114,0.518,0.113,0.518,0.68c0.173,0.346-0.057,0.806-0.688,1.375
			c-0.115,0.114-0.372,0.026-0.773-0.257l-0.508,0.257c0.796,1.03,1.601,2.06,2.401,3.086c0.967,1.37,1.313,2.514,1.023,3.429
			c0.226,0.172,0.37,0.26,0.437,0.26c0.222-0.34,0.596-0.428,1.107-0.26c1.256,0.918,2.401,2.319,3.432,4.205l2.658,4.801
			c0.053,0.062,0.163,0.403,0.339,1.029c0.118,0.401,0.118,0.715,0,0.942c-0.917,1.029-1.34,1.689-1.283,1.973
			c0.455,0.06,0.901,0.132,1.328,0.217C2628.761,98.643,2629.004,98.881,2629.058,99.282z M2617.917,105.453
			c-0.401-0.453-0.596-1.001-0.596-1.624c0-0.286,0.077-0.816,0.253-1.586c0.171-0.775,0.226-1.358,0.171-1.76
			c-0.114-0.054-0.347-0.313-0.685-0.773c0.167-0.054,0.283-0.085,0.338-0.085l-0.939-1.543c0.225,0,0.286-0.115,0.168-0.347
			l-0.25,0.347l-1.972-2.831c-0.406-0.227-0.607-0.539-0.607-0.94c0-0.226,0.26-0.661,0.773-1.287
			c0.519-0.628,0.744-1.06,0.692-1.289l-1.548,1.03c-0.626,0.229-1.515-0.369-2.659-1.801c-0.176-0.627-0.257-1.171-0.257-1.628
			c0-0.628,0.198-1.029,0.6-1.198c-0.583,0.398-1.116,0.6-1.635,0.6c-0.625,0-1.452-0.6-2.484-1.801
			c-1.198-1.492-1.938-2.318-2.226-2.493c-0.288,0.233-0.662,0.349-1.114,0.349c-0.343,0-0.714-0.063-1.118-0.174v8.059
			c-0.225,0.288-0.655,0.438-1.282,0.438h-1.374c0.57,0.453,1.341,1.17,2.322,2.137v9.348c-0.124,0.228-0.549,0.431-1.293,0.6
			c-0.063,0.342,0.193,0.805,0.769,1.366c0.524,0.229,0.776,0.781,0.776,1.632v1.974c0.456,0.345,1.053,0.487,1.802,0.434
			c0.679-0.059,1.337-0.089,1.972-0.089c0.165,0.172,0.339,0.257,0.51,0.257c0.228,0,0.487-0.168,0.773-0.513
			c1.03,0.168,2.415-0.188,4.158-1.073c1.745-0.885,2.988-1.468,3.732-1.757C2616.547,106.057,2617.283,105.401,2617.917,105.453z"
			/>
		<path fill="#FBB515" d="M2646.729,129.295c-0.572,0.515-1.461,1.172-2.661,1.972l-3.517,4.199
			c-0.626-0.06-1.744-0.972-3.346-2.739c-0.113-0.288-0.171-0.517-0.171-0.692c0-0.169,0.058-0.297,0.171-0.383
			c0.117-0.088,0.176-0.27,0.176-0.556c-0.115-0.113-0.289-0.175-0.514-0.175c-0.406,0-2.057,1.146-4.978,3.427
			c0,0.403-0.28,0.866-0.855,1.378c-0.286-0.399-0.814-0.975-1.586-1.718c-0.77-0.74-1.107-1.372-0.986-1.886l-0.264-0.257
			c-0.565,0.861-1.051,1.001-1.452,0.429c-0.86-0.517-2.171-1.399-3.94-2.659c-0.06,0.118-0.345,0.201-0.859,0.261
			c-0.169-1.084-0.259-1.6-0.259-1.545c0.914-0.397,1.404-1.203,1.456-2.404c-0.052-0.971-0.084-1.968-0.084-3
			c-0.231,0-0.515-0.145-0.854-0.422c-0.401-0.691-0.289-1.209,0.339-1.55c2.802,0.175,4.745,0.089,5.837-0.259
			c0.962-0.054,2.169-0.428,3.594-1.112c0.401,0.342,0.631,0.486,0.69,0.428c0.165-0.517,0.725-0.952,1.669-1.327
			c0.939-0.374,1.554-0.687,1.849-0.943c0.277-0.259,0.427-0.53,0.427-0.813c0-0.233-0.348-0.662-1.035-1.29
			c-0.682-0.629-0.995-1.142-0.943-1.543c-0.34-0.343-1.022-0.685-2.055-1.027c-0.232-0.286-0.742-0.315-1.543-0.089l-1.03,0.261
			c-0.739,0.572-1.345,1.059-1.806,1.457c-0.679,0.632-0.908,1.284-0.679,1.971v0.597c0,0.52-0.088,0.917-0.253,1.203
			c-1.21,0.916-1.977,1.369-2.319,1.369c-0.853,0-1.69-0.31-2.486-0.94c-0.464-0.915-0.487-1.512-0.089-1.8
			c0.688-0.798,1.459-0.771,2.316,0.088c0.059,0.343-0.014,0.54-0.22,0.6c-0.192,0.055-0.295,0.227-0.295,0.518
			c0.172,0.052,0.429,0.138,0.773,0.254c0.744-0.86,1.086-1.459,1.019-1.805c-0.732-0.738-0.931-1.511-0.594-2.313
			c-0.337,0.169-0.824,0.204-1.457,0.086c-0.511-0.398-1.284-1.398-2.308-3.001c1.536-0.628,2.566-1.401,3.081-2.312l1.277,0.771
			c-0.104-0.169-0.157-0.372-0.157-0.605c0-0.339,0.077-0.737,0.248-1.2c0.466-0.34,0.979-0.909,1.549-1.711
			c0.396,0,0.658,0.079,0.776,0.254c-0.118,0.802,0.797,1.689,2.736,2.657c0.914,0.175,2.604-0.221,5.065-1.2
			c0.508-0.909,1.197-1.481,2.058-1.711c0.226,0.86,1.137,2.655,2.74,5.399c-0.404,0.744-0.601,1.203-0.601,1.375
			c0.17,0,0.327-0.089,0.472-0.261c0.137-0.168,0.243-0.254,0.305-0.254c0.396,0.113,1.134,0.527,2.221,1.241
			c1.091,0.72,2.003,1.072,2.746,1.072c0.058,0.057,0.092,0.257,0.092,0.6c-0.178,0.174-0.434,0.257-0.771,0.257
			c-0.231,0-0.495-0.06-0.773-0.174c-0.748-0.112-1.234,0.174-1.459,0.86v6.946c-0.747,0.06-1.631,0.375-2.661,0.941
			c0.629,0.409,1.516,0.602,2.661,0.602v2.148c0,0.168,0.485,0.855,1.459,2.056c0.453-0.457,0.964-0.743,1.545-0.86
			C2646.611,128.777,2646.783,129.067,2646.729,129.295z M2637.292,122.946h-0.341c-1.143-1.086-1.549-2.06-1.204-2.915
			c-1.366,0.802-2.254,1.146-2.655,1.032c-0.342,0.396-0.92,0.732-1.712,0.984c-0.808,0.257-1.318,0.477-1.548,0.643
			c0.056,0.459-0.117,0.976-0.512,1.55c-0.17-0.177-0.491-0.262-0.938-0.262c-0.348,0.343-0.434,0.6-0.271,0.772l1.124-0.173
			c0.229,0.229,0.338,0.601,0.338,1.114c0,0.284-0.058,0.664-0.171,1.118c0.974,0.801,2.63,1.71,4.978,2.738l-0.259,0.347
			c0.511,0.111,1.201-0.231,2.063-1.03v-5.229C2636.518,123.637,2636.892,123.407,2637.292,122.946z"/>
		<path fill="#FBB515" d="M2661.051,127.581c-0.696,0.567-1.38,1.57-2.065,2.998c-0.342-0.112-0.825,0-1.457,0.342
			c0,0.915-0.769,2.488-2.311,4.717l-0.6-0.082l-1.723-1.713c-0.625-0.688-0.971-1.346-1.021-1.978
			c0.284-0.286,0.429-0.514,0.429-0.682c0-0.117-0.032-0.201-0.086-0.263l-0.175-0.086c-0.117,0.29-0.459,0.432-1.023,0.432
			c-0.289,0-0.607-0.027-0.95-0.083c-1.26-1.259-2.313-2.116-3.169-2.576c0.166-0.513,0.541-1.114,1.11-1.797
			c0.404-0.12,0.684,0.057,0.863,0.511c0.11,0.228,0.258,0.369,0.423,0.431c0.121-0.171,0.046-0.559-0.209-1.157
			c-0.262-0.602-0.394-0.987-0.394-1.159c0-0.283,0.207-0.537,0.603-0.77v-8.064c0.121-0.168,0.574-0.341,1.375-0.513
			c0.8-0.174,1.142-0.46,1.03-0.858c-0.118-0.23-0.558-0.441-1.327-0.646c-0.773-0.197-1.135-0.553-1.078-1.069
			c0.286-0.631,0.66-1.059,1.115-1.283c0.343,0,0.573-0.118,0.688-0.348c0-0.511-0.114-0.859-0.345-1.024
			c-0.457,0.054-0.942-0.063-1.458-0.346v-4.546c0.064-0.401,0.389-0.6,0.99-0.6c0.599,0,0.933-0.142,0.986-0.425
			c-1.027-0.398-1.658-1.345-1.888-2.83c-0.057-0.513-0.089-2.146-0.089-4.887c-0.396,0.285-0.853,0.827-1.364,1.626
			c-0.063,0.286,0.026,0.717,0.252,1.287l0.171,0.941c-0.23,0.174-0.455,0.26-0.68,0.26c-0.808,0-1.209-0.487-1.209-1.458
			c0-0.799,0.284-1.685,0.856-2.656c0.06-0.058,0.636-0.862,1.72-2.4c0.743-1.03,1.575-1.659,2.484-1.889
			c0.806,0.514,1.092,0.772,0.861,0.772c0.174-0.229,0.257-0.401,0.257-0.518c0-0.229-0.074-0.517-0.212-0.857
			c-0.142-0.342-0.216-0.602-0.216-0.772c0-0.115,0.054-0.219,0.171-0.339c0.342-0.341,0.855-1.23,1.543-2.662
			c0.57-1.197,1.201-2.021,1.886-2.487l0.772,0.771V98.77l-2.229,1.451c0.341,0.464,0.653,0.602,0.943,0.437
			c0.111-0.057,0.368-0.086,0.767-0.086c0,0.455,0.229,0.821,0.689,1.113v8.66c-0.171,0.227-0.374,0.488-0.596,0.77
			c-0.236,0.281-0.52,0.342-0.86,0.171c-0.236,0.229-0.29,0.401-0.172,0.519l0.086,0.081c0.283,0,0.655-0.027,1.107-0.081
			c0.403,0.798,0.605,3.284,0.605,7.457c-0.742,0.458-1.114,0.803-1.114,1.027c0,0.168,0.029,0.286,0.086,0.342
			c0.799,0.06,1.198,1.203,1.198,3.434l2.492,3.176l0.854-0.263C2660.794,126.977,2660.987,127.178,2661.051,127.581z"/>
		<path fill="#FBB515" d="M2683.337,128.351c-0.401,0.688-0.952,0.987-1.669,0.902c-0.717-0.092-1.559,0.013-2.53,0.296
			c-0.46,0.177-0.775,0.261-0.947,0.261c-0.396,0-0.654-0.228-0.767-0.686c0,0.511-0.147,0.829-0.431,0.941
			c-0.284,0.116-0.715,0.401-1.281,0.855c-1.204,1.089-2.118,1.576-2.747,1.459c0.109,0.576,0.024,1.062-0.256,1.463
			c-0.343,0.056-0.741,0.357-1.198,0.895c-0.469,0.544-0.775,0.844-0.95,0.9c-0.513-0.565-1.399-1.4-2.656-2.482
			c-0.406-0.46-0.486-0.805-0.259-1.033l0.861-0.855c-0.174-0.115-0.489-0.171-0.947-0.171c-0.286,0-0.604,0.029-0.933,0.088
			c-0.979,0.109-1.693-0.117-2.15-0.687c-0.516-0.231-1.26-0.661-2.23-1.289c-0.281-0.057-0.658-0.227-1.118-0.517
			c0.059-0.171,0.487-0.452,1.291-0.854c0.63-0.289,0.832-0.69,0.603-1.2c0.107-0.057,0.483-0.204,1.104-0.431
			c0.117-0.055,0.205-0.284,0.265-0.683c-0.808,0.115-1.262,0-1.369-0.346c-0.059-0.857-0.088-1.746-0.088-2.654l1.802-1.209
			c-0.234-0.113-0.345-0.37-0.345-0.766c-0.06,0-0.272,0.099-0.643,0.291c-0.37,0.207-0.645,0.309-0.814,0.309
			c-0.172,0-0.29-0.204-0.348-0.6c0-1.889-0.115-2.978-0.34-3.266c-0.345,0.062-0.776-0.106-1.289-0.514
			c-0.163-0.452,0.147-0.77,0.944-0.938c0.631-0.062,1.228-0.115,1.802-0.174c0.573-0.056,1.146-0.169,1.715-0.343
			c0.973-0.228,1.976-0.486,3.001-0.772c0.685-0.169,2.23-1.027,4.632-2.567c0.229-0.06,0.577,0.111,1.069,0.513
			c0.487,0.396,0.844,0.541,1.073,0.429c0-0.23-0.175-0.474-0.517-0.733c-0.339-0.256-0.511-0.436-0.511-0.556
			c0-0.054,0.057-0.172,0.172-0.343c0.681-0.452,1.629-1.168,2.826-2.145c0.631-0.114,0.939,0.174,0.939,0.861
			c-0.113,0.229-0.284,0.425-0.512,0.602c0.512,0.971,1.803,2.37,3.862,4.196c0.284,0.229,0.829,0.516,1.627,0.858
			c0.395,0.23,0.518,0.569,0.347,1.029c-0.347,0.458-0.786,0.658-1.331,0.597c-0.547-0.054-0.851,0.062-0.905,0.345
			c-0.056,0.175-0.056,1.175,0,3.001c0.055,1.092-0.28,1.829-1.023,2.23l-0.431,0.429c0.463-0.049,0.974,0.259,1.545,0.951
			c0,1.252,0.055,2.022,0.172,2.309C2681.684,127.067,2682.316,127.664,2683.337,128.351z M2673.736,117.458
			c-0.348-0.457-0.714-0.688-1.115-0.688c-0.286,0-0.773,0.178-1.46,0.514c-0.683,0.345-1.169,0.52-1.455,0.52
			c0.059,0.456,0.086,1.941,0.086,4.458c-0.229,0.059-0.744,0.086-1.549,0.086c-0.054,0,0,0.177,0.177,0.513l0.943,0.343
			c0.509,0.291,0.738,1.059,0.686,2.321c-0.057,0.567,0.072,0.981,0.388,1.243c0.313,0.252,0.622,0.482,0.941,0.685
			c0.312,0.195,0.47,0.413,0.47,0.643c0,0.227-0.168,0.501-0.513,0.813c-0.338,0.316-0.514,0.501-0.514,0.555
			c0.283-0.054,0.738-0.254,1.372-0.597c0.056,0,0.254-0.088,0.599-0.258c0.174-0.173,0.372-0.142,0.597,0.084
			c0.46,0.29,0.979,0.631,1.552,1.034l0.51-0.347v-4.37c0.113-0.229,0.399-0.315,0.854-0.258c0.46,0.057,0.775,0.057,0.946,0
			c-0.229-0.742-0.857-1.344-1.885-1.805v-3.169c0-0.174-0.346-0.688-1.026-1.549L2673.736,117.458z"/>
		<g>
			<path fill="#FBB515" d="M2541.134,63.479c-0.311,0.629-0.974,1.385-1.963,2.271c-0.986,0.89-1.64,1.621-1.953,2.19
				c-0.521,0.993-1.438,2.535-2.735,4.616c-0.166,0.215-0.318,0.318-0.471,0.318c-0.166,0-0.42-0.145-0.791-0.434
				c-0.364-0.288-0.65-0.4-0.859-0.353c0.16,2.094,0.054,3.501-0.311,4.229c-0.623,1.044-1.355,2.581-2.192,4.621
				c-0.474,0.099-1.046,0-1.72-0.315c-0.894-0.469-1.541-0.729-1.955-0.784c-0.158-0.154-0.396-0.545-0.707-1.179
				c-0.111,0.318-0.342,0.58-0.705,0.789c-0.364-0.057-0.725-0.057-1.102,0c-0.361,0.051-0.618-0.219-0.775-0.826
				c-0.161-0.6-0.292-1.209-0.396-1.838l-1.011,2.113l-8.3-2.268c-0.262,0-0.642-0.132-1.137-0.388
				c-0.5-0.266-0.823-0.418-0.973-0.475c-0.059-0.31-0.236-0.759-0.551-1.331c-0.266,0.572-0.629,0.991-1.092,1.257
				c-0.163-0.051-1.363-0.266-3.605-0.631c-1.514-0.261-2.744-0.365-3.686-0.309c-0.516-0.317-1.775-0.446-3.754-0.391
				c-0.102,0.052-0.99,0.233-2.662,0.543l-1.72-1.015c0,1.302-0.114,2.123-0.353,2.468c-0.235,0.339-0.575,0.727-1.021,1.169
				c-0.441,0.449-0.658,0.746-0.658,0.901c0,0.211,0.023,0.417,0.075,0.631c-0.209,0.465-0.315,0.934-0.315,1.406
				c0,0.678,0.264,1.3,0.783,1.878l0.549,0.388c0.366-0.465,1.043-0.937,2.037-1.406l-0.315,0.152c0-0.415,0.278-0.795,0.821-1.132
				c0.545-0.339,0.851-0.636,0.9-0.898c0.733,0.051,1.434,0.077,2.111,0.077c0.786,0.208,1.203,0.683,1.257,1.412
				c0.157,0.364,0.235,0.647,0.235,0.858c0,0.263-0.107,0.441-0.313,0.549h-0.708c0.158-0.468-0.131-0.866-0.864-1.175
				c-0.463,0.049-0.886,0.521-1.249,1.41c-0.363,0.883-0.757,1.409-1.168,1.564c0.149,0.208,0.234,0.36,0.234,0.471l-1.337,1.172
				c-2.503-0.364-4.378-1.904-5.636-4.617l-0.149-2.428c0.097-0.73,0.653-1.169,1.646-1.329c0.099-0.26-0.017-0.546-0.354-0.862
				c-0.346-0.309-0.514-0.547-0.514-0.705c0-0.152,0.054-0.313,0.158-0.471c2.297-3.335,4.404-5.424,6.336-6.261
				c0.157,0.05,0.299,0.225,0.43,0.508c0.135,0.286,0.327,0.409,0.589,0.354c0.048-1.146,0.444-1.773,1.175-1.878
				c0.313-0.051,0.631-0.12,0.938-0.195c0.321-0.075,0.627-0.142,0.939-0.195v-7.593c0.262,0,0.396-0.283,0.396-0.864
				c0-0.256,0.194-0.412,0.582-0.468c0.394-0.051,0.615-0.074,0.669-0.074c0.517-0.268,1.069-0.763,1.64-1.488
				c-1.463-0.158-2.581-0.521-3.365-1.096v-6.66c0.109,0,0.391-0.099,0.867-0.308c0-0.315-0.15-0.564-0.436-0.743
				c-0.289-0.187-0.432-0.484-0.432-0.902c0-4.696-0.074-8.248-0.234-10.646c-2.396,1.254-3.938,2.661-4.613,4.228
				c0.205,0.05,0.494,0.014,0.855-0.12c0.371-0.128,0.602-0.195,0.703-0.195c0.265,0,0.5,0.211,0.711,0.628
				c0.049,0.206,0,0.522-0.158,0.941c-0.154,0.415-0.237,0.703-0.237,0.854c-0.262,0.214-0.546,0.318-0.861,0.318l-2.425-1.171
				c-0.212-1.984,0.264-3.263,1.412-3.843c0.783-0.933,2.082-2.159,3.91-3.669l0.234,0.23c0.315-0.468,0.469-0.835,0.469-1.094
				c0-0.161-0.021-0.266-0.075-0.316c1.305-1.145,3.341-4.091,6.11-8.842c1.196,1.251,3.21,2.841,6.018,4.771
				c0.477,0.056,0.969,0.42,1.493,1.099c-0.051,0.259-0.313,0.573-0.78,0.938c-1.148,0-2.012-0.288-2.587-0.863l-0.313,0.313
				l-0.074,8.379c0.051,0.468-0.254,0.885-0.898,1.249c-0.658,0.367-0.929,0.781-0.824,1.251c0.52-0.521,0.91-0.705,1.177-0.545
				l0.235,0.238c0.15,4.119,0.024,6.625-0.398,7.512c0.163,0.209,0.235,0.391,0.235,0.543c0,0.211-0.131,0.508-0.388,0.907
				c-0.265,0.391-0.417,0.664-0.477,0.818c0.367,0.053,0.816,0.497,1.338,1.334l-0.236,7.829c0,0.308-0.31,0.516-0.936,0.624
				c0.626,0.516,1.012,1.256,1.172,2.192v4.929c0.516,0.367,1.449,0.6,2.775,0.707c1.332,0.102,2.256,0.283,2.781,0.549
				c0,0.577,0.127,0.989,0.392,1.248l2.349-1.168c0.836,0,1.272,0.048,1.326,0.149c0.891,0.054,2.166,0.158,3.835,0.315
				c0.466,0.106,0.829,0.367,1.06,0.78c0.234,0.42,0.43,0.812,0.585,1.175v0.083c0.157,0.051,0.441-0.235,0.864-0.863
				c0.414-0.629,0.705-0.993,0.854-1.098c0.679-0.152,1.441-0.313,2.278-0.47c0.308-0.102,2.503-1.041,6.574-2.819
				c0.523,0,1.066-0.362,1.642-1.094c0.575-0.727,1.069-1.121,1.49-1.174c0.254-0.155,0.39-0.286,0.39-0.391
				c0-0.155-0.096-0.379-0.275-0.666c-0.185-0.286-0.272-0.482-0.272-0.586c0-0.208,0.099-0.417,0.308-0.625
				c0.629-0.367,1.097-0.551,1.417-0.551c0.103,0,0.177,0.027,0.23,0.081c0.257,0.055,0.406,0.302,0.434,0.743
				C2540.808,63.102,2540.92,63.372,2541.134,63.479z"/>
			<path fill="#FBB515" d="M2540.348,61.454c-0.418,0.723-1.014,1.039-1.769,0.95c-0.757-0.093-1.645,0.014-2.674,0.313
				c-0.486,0.184-0.821,0.275-1.003,0.275c-0.42,0-0.695-0.24-0.818-0.722c0,0.543-0.147,0.875-0.457,0.996
				c-0.303,0.119-0.755,0.427-1.361,0.909c-1.266,1.149-2.236,1.664-2.899,1.543c0.118,0.604,0.029,1.12-0.271,1.54
				c-0.369,0.062-0.791,0.38-1.275,0.955c-0.487,0.578-0.815,0.894-0.998,0.952c-0.543-0.602-1.484-1.487-2.813-2.631
				c-0.424-0.482-0.517-0.846-0.276-1.087l0.909-0.912c-0.179-0.115-0.516-0.182-0.998-0.182c-0.299,0-0.633,0.032-0.996,0.094
				c-1.033,0.12-1.793-0.124-2.271-0.729c-0.543-0.242-1.329-0.691-2.359-1.36c-0.307-0.062-0.697-0.241-1.184-0.541
				c0.063-0.184,0.514-0.491,1.363-0.911c0.672-0.305,0.877-0.727,0.639-1.271c0.119-0.057,0.509-0.214,1.178-0.458
				c0.117-0.059,0.208-0.3,0.272-0.722c-0.849,0.124-1.331,0-1.45-0.367c-0.061-0.907-0.096-1.843-0.096-2.813l1.91-1.268
				c-0.241-0.125-0.364-0.396-0.364-0.821c-0.064,0-0.289,0.11-0.682,0.321c-0.396,0.214-0.677,0.319-0.864,0.319
				c-0.18,0-0.302-0.214-0.358-0.64c0-1.998-0.122-3.145-0.364-3.455c-0.366,0.067-0.815-0.115-1.363-0.543
				c-0.182-0.483,0.15-0.816,0.997-0.995c0.663-0.062,1.304-0.125,1.905-0.182c0.611-0.06,1.214-0.185,1.818-0.364
				c1.032-0.241,2.086-0.516,3.174-0.821c0.733-0.178,2.367-1.08,4.908-2.719c0.24-0.06,0.62,0.122,1.132,0.545
				c0.516,0.42,0.896,0.574,1.137,0.451c0-0.238-0.18-0.502-0.544-0.767c-0.363-0.276-0.545-0.471-0.545-0.593
				c0-0.057,0.063-0.18,0.182-0.37c0.728-0.479,1.725-1.235,2.993-2.262c0.671-0.12,1.005,0.182,1.005,0.904
				c-0.131,0.243-0.31,0.455-0.548,0.636c0.548,1.035,1.909,2.514,4.086,4.45c0.303,0.242,0.875,0.546,1.726,0.91
				c0.423,0.24,0.54,0.605,0.364,1.091c-0.364,0.481-0.835,0.696-1.407,0.629c-0.575-0.056-0.896,0.067-0.96,0.367
				c-0.062,0.182-0.062,1.24,0,3.179c0.064,1.15-0.3,1.942-1.089,2.359l-0.449,0.453c0.479-0.06,1.027,0.274,1.634,1.003
				c0,1.329,0.06,2.147,0.182,2.447C2538.591,60.085,2539.259,60.725,2540.348,61.454z M2530.185,49.917
				c-0.364-0.485-0.754-0.729-1.185-0.729c-0.301,0-0.816,0.185-1.535,0.543c-0.73,0.367-1.25,0.548-1.551,0.548
				c0.061,0.487,0.096,2.06,0.096,4.728c-0.244,0.056-0.787,0.089-1.64,0.089c-0.06,0,0,0.179,0.179,0.54l1,0.364
				c0.544,0.302,0.787,1.123,0.73,2.455c-0.064,0.605,0.072,1.038,0.406,1.313c0.335,0.276,0.669,0.516,0.998,0.725
				c0.334,0.213,0.5,0.443,0.5,0.684c0,0.237-0.182,0.532-0.543,0.866c-0.363,0.324-0.545,0.53-0.545,0.586
				c0.305-0.057,0.783-0.273,1.452-0.634c0.062,0,0.275-0.094,0.637-0.276c0.182-0.179,0.391-0.146,0.636,0.096
				c0.481,0.3,1.024,0.661,1.632,1.083L2532,62.54v-4.632c0.118-0.24,0.421-0.329,0.899-0.268c0.486,0.059,0.823,0.059,1.003,0
				c-0.244-0.792-0.904-1.428-1.995-1.91v-3.359c0-0.187-0.361-0.727-1.089-1.636L2530.185,49.917z"/>
			<path fill="#FBB515" d="M2571.723,60.135c-0.163,0.236-0.533,0.401-1.124,0.476c-0.594,0.084-0.889,0.358-0.889,0.835
				c0,0.703,0,1.418,0,2.128c-0.085,0.554-0.395,0.987-0.95,1.303c-0.313,0-0.633,0-0.951,0c-0.313,0-0.435,0.436-0.357,1.303
				c0,0.315,0.306,0.554,0.896,0.71c0.592,0.161,0.969,0.313,1.123,0.477c0,2.368,0.032,3.709,0.123,4.024
				c0.151,0.629,0.709,1.146,1.653,1.541c-0.399,1.1-0.992,1.658-1.776,1.658c-0.395,0-1.149-0.313-2.251-0.948
				c-1.103-0.635-1.969-0.907-2.603-0.827c-2.602,0.235-5.453,1.417-8.532,3.554c-0.235,0.395-0.634,1.105-1.182,2.124
				c-0.319,0.244-0.551,0.358-0.71,0.358c-0.313,0-0.558-0.332-0.713-1.005c-0.158-0.669-0.278-1.083-0.353-1.241
				c-0.238-0.477-0.795-1.185-1.661-2.138c0.866-1.497,1.145-2.407,0.828-2.723l-0.234-0.117c-0.318,0.317-0.629,0.689-0.955,1.123
				c-0.311,0.436-0.664,0.615-1.057,0.535c-1.029-1.266-2.214-1.776-3.555-1.541c-1.655,0.396-2.805,1.306-3.437,2.723
				c-0.16,0.318-0.355,0.907-0.591,1.779c-0.16,0.237-0.235,0.709-0.235,1.417c0,0.715-0.235,0.992-0.711,0.829
				c-0.557-0.545-0.835-1.297-0.835-2.246c0,0.237,0.24-1.021,0.711-3.789c1.19-3.239,3.99-5.292,8.411-6.157
				c4.424,0.154,7.858,1.695,10.308,4.612c0-2.363,0.038-3.709,0.121-4.022c0.071-0.317,0.425-0.789,1.059-1.419h1.311
				c0.075-0.476,0.155-1.067,0.235-1.775c-0.235-0.083-0.673,0-1.304,0.237c-0.638,0.156-1.111,0.118-1.422-0.12
				c0-0.396,0-0.792,0-1.185c0-0.398,0-0.792,0-1.182c-0.633-0.318-1.543-1.03-2.725-2.137c-1.503,1.345-3.004,2.647-4.501,3.912
				c-1.741,1.5-3.356,2.25-4.857,2.25c-0.872,0-1.741-0.198-2.603-0.594c-0.318-0.156-0.519-0.473-0.591-0.944
				c-0.08-0.476-0.198-0.791-0.355-0.952c0.157-0.076,0.711-0.117,1.655-0.117c0.549,0.636,1.229,0.906,2.009,0.832l1.066-0.474
				c-1.341-1.502-3.511-2.851-6.512-4.03c-0.075-0.396,0.062-0.692,0.414-0.888c0.358-0.192,0.53-1.048,0.53-2.543
				c0.16-0.244,0.649-0.377,1.486-0.42c0.824-0.038,1.158-0.329,1.006-0.885c-0.083-0.313-0.262-0.413-0.529-0.298
				c-0.283,0.118-0.498,0.102-0.65-0.059c-0.951-0.077-1.431-0.805-1.431-2.193c0-1.38-0.197-2.193-0.586-2.428
				c-0.872,0-1.305-0.351-1.305-1.064c0.075-0.554,0.551-0.873,1.42-0.952c0.632-0.075,1.238-0.176,1.837-0.292
				c0.597-0.119,1.161-0.256,1.718-0.412c0.625-0.165,1.104,0,1.42,0.468c0.394-0.71,1.064-1.225,2.017-1.538
				c0.946-0.317,1.895-0.631,2.841-0.947c1.655-0.398,4.265-1.66,7.814-3.794c0.311,0.789,0.674,1.864,1.069,3.201
				c1.341,2.056,2.915,2.963,4.732,2.725c1.104-0.315,1.775-0.871,2.019-1.66c-0.243-0.554-0.117-1.305,0.355-2.249
				c0.477-0.081,0.806,0.056,1.009,0.411c0.194,0.358,0.366,0.734,0.532,1.132c-0.233,1.816-1.064,3.512-2.493,5.087
				c-1.422,1.586-3.035,2.57-4.854,2.965c-1.823,0.475-3.072,0.159-3.789-0.952c-0.236,0.401-0.554,0.594-0.95,0.594
				c-0.315,0-0.749-0.177-1.3-0.53c-0.557-0.353-0.905-0.535-1.069-0.535c-0.868-0.711-1.849-1.899-2.956-3.555l-0.825-0.594
				l-0.24,0.238v4.146c-0.234,0.316-0.512,0.439-0.838,0.358c-0.466-0.08-0.826-0.123-1.057-0.123
				c-0.315,0.166-0.398,0.438-0.241,0.835c0.552,0.08,1.085,0.197,1.603,0.353c0.511,0.163,0.688,0.912,0.533,2.249
				c0.86,0.56,2.134,1.666,3.781,3.322c1.981-1.346,4.937-3.282,8.893-5.807c0.154,0,0.666-0.037,1.535-0.117
				c0.709-0.161,1.265-0.161,1.657,0c0.554,0.08,0.951,0.432,1.191,1.066c0.075,0.319-0.121,0.789-0.594,1.418
				c-1.423-0.707-2.413-0.904-2.964-0.591l-0.118,0.121c0.394,1.185,1.463,2.211,3.199,3.078
				C2570.254,58.403,2571.326,59.272,2571.723,60.135z"/>
		</g>
		<path fill="#FBB515" d="M2434.241,99.282c0.063,2.915-0.541,5.207-1.801,6.858c-0.057,0-0.34-0.057-0.855-0.172
			c-0.284,0-0.423,0.206-0.423,0.596c0.052,0.175,0.083,0.348,0.083,0.522c0,0.111-0.031,0.259-0.083,0.424
			c-0.238,0.284-0.409,0.576-0.517,0.859c-0.289,0.118-0.743,0.443-1.371,0.99c-0.637,0.537-1.092,0.81-1.37,0.81
			c-0.294,0-0.575-0.144-0.86-0.427c0.056-0.347-0.06-0.828-0.349-1.459c-0.401,0.171-0.566,0.511-0.511,1.03v1.629
			c-2.121,1.486-5.485,2.431-10.123,2.829l-0.768-0.685c-0.339,0.685-1.023,1.027-2.063,1.027c-1.021,0-2.109-0.139-3.252-0.429
			c-0.293-0.059-1.088-0.171-2.4-0.339c0.053,0.339-0.012,0.756-0.22,1.237c-0.192,0.487-0.294,0.816-0.294,0.988
			c0,0.229,0.023,0.402,0.088,0.516c-1.431,0.912-2.057,1.912-1.889,3.001c0.686-0.746,1.06-1.116,1.115-1.116
			c0.113,0,0.254,0.084,0.428,0.255l0.771,0.604c-0.06,1.316-0.084,3.29-0.084,5.918c0.686,0.115,1.6,0.53,2.738,1.242
			c1.15,0.716,1.635,1.074,1.459,1.074c0-0.404,0.377-0.976,1.117-1.714c0.738-0.746,1.172-1.29,1.284-1.631
			c0.056-0.057,0.144-0.086,0.257-0.086c0.404,0,0.858,0.227,1.377,0.685c0.225,0.227,0.334,0.459,0.334,0.688
			c0,0.17-0.256,0.438-0.768,0.813c-0.51,0.372-0.768,0.672-0.768,0.901c-0.465,0.517-1.434,1.941-2.918,4.284
			c-0.742,1.432-1.803,3.258-3.169,5.488l-2.233-2.23c-0.912-0.744-1.773-1.143-2.57-1.201c-0.633-0.566-1.655-1.112-3.092-1.626
			c-1.596-0.517-2.688-0.94-3.26-1.286c-0.283,0.06-0.486,0.06-0.599,0c0.059,0.174,0.091-0.171,0.091-1.027
			c-0.118-0.115-0.232-0.174-0.346-0.174c-0.403,0-0.805,0.403-1.203,1.201c-0.457-0.342-0.915-0.517-1.369-0.517
			c-0.23,0-0.543,0.057-0.939,0.175c-0.408,0.115-0.689,0.171-0.866,0.171c-0.622,0-1.136-0.461-1.538-1.373
			c-0.345,0.057-0.459,0.258-0.345,0.601c0.054,0.227,0.086,0.402,0.086,0.518c0,0.17-0.032,0.281-0.086,0.34
			c-2.626,2.174-3.942,3.633-3.942,4.376c0,0.171,0.07,0.343,0.215,0.511c0.141,0.177,0.815,0.912,2.016,2.23
			c-0.171-0.513-0.029-1.029,0.426-1.545c0.398-0.057,0.772-0.082,1.115-0.082c0.805,0,1.489,0.228,2.054,0.683
			c0.348,0.626,0.519,1.398,0.519,2.319l-0.77,0.425c-0.457-1.145-0.805-1.718-1.029-1.718c-0.178,0-0.34,0.063-0.517,0.177
			c-0.229,0.455-0.677,1.055-1.324,1.801c-0.661,0.737-0.898,1.486-0.729,2.23l-0.52,0.511c-0.457-0.629-1.254-1.567-2.398-2.829
			c0.342-0.686,0.519-1.258,0.519-1.713c-1.318,0-2.062-0.232-2.235-0.689c-0.457-1.598-0.627-2.773-0.509-3.515
			c0.28-1.768,0.623-2.858,1.026-3.257c0.225-0.627,0.91-1.659,2.055-3.084c0.457-0.233,1.918-0.861,4.375-1.888
			c0.402,0.055,0.916,0.254,1.538,0.599c0.289-0.8,1.147-1.272,2.576-1.413c1.431-0.146,2.281-0.446,2.575-0.905
			c0.057-0.049,0.383-0.258,0.984-0.599c0.6-0.343,0.904-0.744,0.904-1.199c0-0.112-0.037-0.313-0.092-0.604l-0.17-0.083
			c-0.803,0.918-1.547,1.26-2.231,1.029v-2.572c0.289,0,0.829-0.428,1.637-1.287c0-0.115-0.546-0.46-1.637-1.025v-3.518
			c-0.28-0.118-0.823-0.118-1.629,0c-0.685,0.171-1.251,0.112-1.712-0.171c-0.634,0.342-1.481,1.085-2.572,2.229l0.168,0.084
			c0.292-0.573,0.693-0.856,1.198-0.856c0.228,0,0.519,0.083,0.866,0.26c0.738,0.74,0.818,1.428,0.252,2.054
			c-0.914,1.027-1.912,1.429-3.001,1.198c-0.114-0.171-0.425-0.514-0.944-1.024c-0.398-0.345-0.596-0.714-0.596-1.115
			c0-1.826,0.885-3.204,2.652-4.113c0.576,0,1.445-0.228,2.619-0.69c1.168-0.452,2.075-0.655,2.698-0.599
			c0.177-0.172,0.229-0.891,0.177-2.146c0-1.03,0.171-1.54,0.508-1.54c0.23,0,0.465,0.054,0.689,0.174
			c0.744-0.401,1.119-0.805,1.119-1.206c0,0.115-0.23-0.228-0.691-1.024l-1.802,0.425v-7.975l1.374-0.683
			c0.461-0.232,0.658-0.483,0.6-0.773c-0.631-0.171-1.289-0.628-1.974-1.372v-5.912l-1.372-0.434
			c-0.511,0.401-1.508,1.059-2.998,1.974c-0.682,0.343-1.604,1.254-2.747,2.744c0.062,0.114,0.145,0.176,0.263,0.176
			c0.111-0.062,0.24-0.149,0.382-0.262c0.14-0.115,0.272-0.142,0.388-0.088c0.683,0.629,0.941,1.232,0.768,1.802
			c-0.51,0.8-1.139,1.201-1.885,1.201c-0.401,0-0.803-0.083-1.195-0.262c-0.977-1.14-1.461-1.856-1.461-2.138
			c0-0.288,0.088-0.516,0.254-0.691c0-0.792,0.492-1.354,1.463-1.666c0.974-0.311,1.455-0.792,1.455-1.418
			c1.26-0.855,3.116-2.11,5.576-3.774l0.941,0.086c0.169-0.685,0.715-1.514,1.629-2.486c0.744-0.688,1.797-1.801,3.172-3.344
			c0.517-0.686,0.971-1.112,1.378-1.287c-0.177-0.401-0.062-0.714,0.337-0.943c0.117,0.056,0.489,0,1.115-0.175
			c0.572-0.106,0.861,0.123,0.861,0.686c-0.289,0.35-0.434,0.717-0.434,1.12c0,0.514,0.398,1.027,1.201,1.538
			c1.086,0.746,1.631,1.18,1.631,1.294c2.287,0.052,3.945-0.2,4.975-0.774l0.856,0.857c0.511-0.061,0.771-0.256,0.771-0.602v-1.115
			c0.059-0.342,0.348-0.483,0.861-0.427c0.793-0.115,1.863-0.542,3.215-1.284c1.342-0.744,2.379-1.17,3.123-1.293
			c0-0.564,0.321-0.851,0.949-0.851h1.458c0.339-0.114,0.511,0.113,0.511,0.68c0.174,0.346-0.057,0.806-0.688,1.375
			c-0.112,0.114-0.372,0.026-0.765-0.257l-0.517,0.257c0.795,1.03,1.602,2.06,2.396,3.086c0.977,1.37,1.316,2.514,1.029,3.429
			c0.23,0.172,0.372,0.26,0.432,0.26c0.225-0.34,0.596-0.428,1.115-0.26c1.259,0.918,2.396,2.319,3.428,4.205l2.662,4.801
			c0.048,0.062,0.166,0.403,0.342,1.029c0.107,0.401,0.107,0.715,0,0.942c-0.92,1.029-1.348,1.689-1.291,1.973
			c0.457,0.06,0.898,0.132,1.328,0.217C2433.946,98.643,2434.186,98.881,2434.241,99.282z M2423.096,105.453
			c-0.396-0.453-0.598-1.001-0.598-1.624c0-0.286,0.089-0.816,0.257-1.586c0.175-0.775,0.225-1.358,0.175-1.76
			c-0.118-0.054-0.343-0.313-0.693-0.773c0.174-0.054,0.289-0.085,0.351-0.085l-0.95-1.543c0.225,0,0.289-0.115,0.172-0.347
			l-0.249,0.347l-1.976-2.831c-0.407-0.227-0.6-0.539-0.6-0.94c0-0.226,0.256-0.661,0.768-1.287c0.516-0.628,0.743-1.06,0.689-1.289
			l-1.551,1.03c-0.625,0.229-1.508-0.369-2.65-1.801c-0.18-0.627-0.26-1.171-0.26-1.628c0-0.628,0.201-1.029,0.604-1.198
			c-0.577,0.398-1.118,0.6-1.631,0.6c-0.632,0-1.458-0.6-2.49-1.801c-1.198-1.492-1.942-2.318-2.231-2.493
			c-0.288,0.233-0.657,0.349-1.111,0.349c-0.346,0-0.717-0.063-1.118-0.174v8.059c-0.222,0.288-0.655,0.438-1.284,0.438h-1.372
			c0.573,0.453,1.351,1.17,2.321,2.137v9.348c-0.117,0.228-0.551,0.431-1.289,0.6c-0.056,0.342,0.198,0.805,0.773,1.366
			c0.516,0.229,0.768,0.781,0.768,1.632v1.974c0.46,0.345,1.057,0.487,1.803,0.434c0.682-0.059,1.34-0.089,1.969-0.089
			c0.176,0.172,0.348,0.257,0.519,0.257c0.225,0,0.479-0.168,0.767-0.513c1.035,0.168,2.416-0.188,4.164-1.073
			c1.742-0.885,2.982-1.468,3.724-1.757C2421.726,106.057,2422.469,105.401,2423.096,105.453z"/>
		<path fill="#FBB515" d="M2451.908,129.295c-0.569,0.515-1.458,1.172-2.658,1.972l-3.517,4.199
			c-0.629-0.06-1.742-0.972-3.338-2.739c-0.121-0.288-0.178-0.517-0.178-0.692c0-0.169,0.057-0.297,0.178-0.383
			c0.109-0.088,0.174-0.27,0.174-0.556c-0.118-0.113-0.295-0.175-0.52-0.175c-0.404,0-2.057,1.146-4.972,3.427
			c0,0.403-0.288,0.866-0.858,1.378c-0.289-0.399-0.813-0.975-1.584-1.718c-0.775-0.74-1.106-1.372-0.989-1.886l-0.257-0.257
			c-0.58,0.861-1.064,1.001-1.463,0.429c-0.854-0.517-2.174-1.399-3.944-2.659c-0.06,0.118-0.34,0.201-0.858,0.261
			c-0.169-1.084-0.254-1.6-0.254-1.545c0.916-0.397,1.4-1.203,1.457-2.404c-0.057-0.971-0.082-1.968-0.082-3
			c-0.229,0-0.512-0.145-0.859-0.422c-0.401-0.691-0.286-1.209,0.348-1.55c2.798,0.175,4.739,0.089,5.828-0.259
			c0.968-0.054,2.172-0.428,3.597-1.112c0.406,0.342,0.628,0.486,0.692,0.428c0.16-0.517,0.729-0.952,1.67-1.327
			c0.941-0.374,1.551-0.687,1.842-0.943c0.283-0.259,0.428-0.53,0.428-0.813c0-0.233-0.342-0.662-1.026-1.29
			c-0.69-0.629-1-1.142-0.944-1.543c-0.342-0.343-1.027-0.685-2.057-1.027c-0.23-0.286-0.748-0.315-1.543-0.089l-1.033,0.261
			c-0.737,0.572-1.337,1.059-1.797,1.457c-0.688,0.632-0.917,1.284-0.688,1.971v0.597c0,0.52-0.088,0.917-0.262,1.203
			c-1.195,0.916-1.969,1.369-2.313,1.369c-0.853,0-1.685-0.31-2.484-0.94c-0.463-0.915-0.487-1.512-0.085-1.8
			c0.688-0.798,1.457-0.771,2.313,0.088c0.051,0.343-0.016,0.54-0.211,0.6c-0.203,0.055-0.303,0.227-0.303,0.518
			c0.172,0.052,0.437,0.138,0.771,0.254c0.741-0.86,1.087-1.459,1.035-1.805c-0.749-0.738-0.949-1.511-0.604-2.313
			c-0.345,0.169-0.829,0.204-1.457,0.086c-0.514-0.398-1.287-1.398-2.314-3.001c1.541-0.628,2.57-1.401,3.084-2.312l1.292,0.771
			c-0.12-0.169-0.177-0.372-0.177-0.605c0-0.339,0.088-0.737,0.26-1.2c0.461-0.34,0.971-0.909,1.541-1.711
			c0.396,0,0.657,0.079,0.775,0.254c-0.118,0.802,0.797,1.689,2.738,2.657c0.918,0.175,2.602-0.221,5.063-1.2
			c0.514-0.909,1.207-1.481,2.06-1.711c0.225,0.86,1.142,2.655,2.741,5.399c-0.398,0.744-0.599,1.203-0.599,1.375
			c0.169,0,0.329-0.089,0.474-0.261c0.136-0.168,0.238-0.254,0.299-0.254c0.398,0.113,1.143,0.527,2.229,1.241
			c1.091,0.72,1.998,1.072,2.738,1.072c0.064,0.057,0.096,0.257,0.096,0.6c-0.176,0.174-0.436,0.257-0.775,0.257
			c-0.229,0-0.489-0.06-0.772-0.174c-0.743-0.112-1.233,0.174-1.458,0.86v6.946c-0.74,0.06-1.631,0.375-2.66,0.941
			c0.633,0.409,1.516,0.602,2.66,0.602v2.148c0,0.168,0.486,0.855,1.458,2.056c0.454-0.457,0.974-0.743,1.548-0.86
			C2451.795,128.777,2451.958,129.067,2451.908,129.295z M2442.475,122.946h-0.338c-1.146-1.086-1.545-2.06-1.203-2.915
			c-1.371,0.802-2.254,1.146-2.653,1.032c-0.35,0.396-0.92,0.732-1.714,0.984c-0.808,0.257-1.321,0.477-1.551,0.643
			c0.053,0.459-0.118,0.976-0.514,1.55c-0.177-0.177-0.492-0.262-0.941-0.262c-0.343,0.343-0.428,0.6-0.262,0.772l1.117-0.173
			c0.23,0.229,0.342,0.601,0.342,1.114c0,0.284-0.053,0.664-0.171,1.118c0.969,0.801,2.63,1.71,4.976,2.738l-0.26,0.347
			c0.516,0.111,1.203-0.231,2.059-1.03v-5.229C2441.709,123.637,2442.071,123.407,2442.475,122.946z"/>
		<path fill="#FBB515" d="M2460.999,94.646c0.762-0.833,1.057-1.635,0.885-2.389c-0.588,0.336-1.551,0.417-2.893,0.249
			c0-6.046-0.341-9.784-1.012-11.216c-0.503-0.079-0.926,0.129-1.254,0.638c-0.506,0.751-0.849,1.214-1.014,1.386
			c-0.086,0.331,0,0.794,0.248,1.379c0.26,0.592,0.385,1.006,0.385,1.266c0,0.337-0.148,0.604-0.446,0.824
			c-0.297,0.202-0.647,0.305-1.067,0.305c-1.511,0-2.477-0.792-2.898-2.395c-0.092-0.754,0.794-2.266,2.65-4.53
			c2.934-3.282,7.473-8.023,13.597-14.237c0.423-1.096,0.845-1.645,1.269-1.645c0.25,0,0.453,0.254,0.631,0.757v17.389
			c-0.178,0.252-0.428,0.378-0.76,0.378c-0.417,0-0.966-0.313-1.64-0.947c-0.674-0.628-1.051-0.943-1.137-0.943
			c-0.16,0.335-0.246,0.671-0.246,1.014c0,0.662,0.649,1.545,1.947,2.637c1.3,1.094,1.915,2.062,1.835,2.907v9.066
			c-0.509,0.172-1.22,0.462-2.146,0.882h-0.882c-0.335,0.841-0.252,1.472,0.251,1.892c0.334-0.335,0.797-0.374,1.391-0.12
			c0.246,0.248,0.331,0.749,0.246,1.503c0,0.848,0,1.348,0,1.514c0.171,0.42,0.551,0.591,1.14,0.505
			c0.166,0.086,0.348,0.378,0.561,0.883c0.212,0.498,0.407,0.758,0.576,0.758c0.074-0.086,0.162-0.171,0.251-0.26
			c0-0.752,0.265-1.147,0.818-1.195c0.546-0.038,1.022-0.1,1.447-0.186h3.022c-0.089-0.585-0.089-1.387,0-2.39
			c0.674-1.347,1.639-1.852,2.893-1.518c1.432,0.341,2.438,0.972,3.027,1.889c0.166,0.34,0,1.474-0.502,3.399
			c-1.514,1.438-3.11,2.273-4.787,2.527c-0.583,0.083-3.025,0.123-7.307,0.123v0.503c0,4.118,0,6.43,0,6.932
			c-0.086,1.261-0.509,1.89-1.263,1.89c-0.251,0-0.674-0.084-1.259-0.252c-0.341,0.086-0.841,0.252-1.515,0.505
			c0.083,0.838,0.818,1.404,2.201,1.698c1.396,0.302,2.086,0.821,2.086,1.578c0,0.252-0.085,0.545-0.251,0.88
			c0,3.779,0.117,6.136,0.379,7.061c0.33,2.097,1.301,3.23,2.895,3.399l1.389-0.38c0.502-0.165,0.882,0.046,1.133,0.634
			c-0.171,0.921-0.76,1.595-1.762,2.017c-1.268,0.669-2.105,1.255-2.522,1.761c-0.171,0-0.631-0.252-1.394-0.758
			c-0.748-0.5-1.294-0.751-1.631-0.751c-0.172,0.082-0.3,0.165-0.386,0.251c0.343,0.5,0.723,0.963,1.14,1.385
			c0.582,0.758,0.803,1.3,0.631,1.635c-0.76,0.171-1.516,0.946-2.271,2.335c-0.749,1.386-1.554,2.078-2.392,2.078
			c-0.25,0-0.548-0.046-0.879-0.129c-0.926-0.751-2.065-2.183-3.41-4.284l-0.623-0.877c0.082-0.254,0.353-0.447,0.815-0.569
			c0.462-0.123,0.692-0.23,0.692-0.315c-0.08-0.166-0.208-0.335-0.377-0.506c-0.586,0.506-1.22,0.757-1.889,0.757
			c-0.756,0-1.725-0.417-2.893-1.257c-1.514-1.095-2.482-1.724-2.902-1.892c0.337-0.586,1.217-1.468,2.645-2.647
			c1.426-1.175,2.226-2.306,2.395-3.396c0.922,0,1.514-0.086,1.766-0.254c-1.098-0.589-1.684-1.517-1.766-2.774
			c0.082-1.091,0.129-2.182,0.129-3.273c0.245-0.339,0.711-0.388,1.385-0.128c-0.089,0.083-0.089,0.209,0,0.377
			c0.331-0.669,0.252-1.471-0.257-2.396c-0.757,0-1.175-0.127-1.257-0.377v-10.458c-0.674,0-3.105,0-7.307,0
			c0.085,1.763-0.506,2.942-1.766,3.53c-1.934,0.166-3.447-0.969-4.536-3.398c-0.419-1.015-0.12-2.101,0.88-3.28
			c0.843-0.676,2.15-0.968,3.904-0.883c3.197,0,4.834,0,4.914,0l4.039-0.127v-6.673L2460.999,94.646z"/>
		<path fill="#FBB515" d="M2499.837,129.295c-0.572,0.515-1.458,1.172-2.653,1.972l-3.514,4.199
			c-0.631-0.06-1.747-0.972-3.352-2.739c-0.106-0.288-0.166-0.517-0.166-0.692c0-0.169,0.06-0.297,0.166-0.383
			c0.115-0.088,0.174-0.27,0.174-0.556c-0.115-0.113-0.28-0.175-0.505-0.175c-0.405,0-2.065,1.146-4.98,3.427
			c0,0.403-0.286,0.866-0.858,1.378c-0.283-0.399-0.816-0.975-1.592-1.718c-0.768-0.74-1.096-1.372-0.981-1.886l-0.257-0.257
			c-0.569,0.861-1.053,1.001-1.457,0.429c-0.859-0.517-2.172-1.399-3.939-2.659c-0.064,0.118-0.348,0.201-0.861,0.261
			c-0.174-1.084-0.257-1.6-0.257-1.545c0.917-0.397,1.401-1.203,1.458-2.404c-0.057-0.971-0.086-1.968-0.086-3
			c-0.23,0-0.516-0.145-0.859-0.422c-0.397-0.691-0.288-1.209,0.344-1.55c2.803,0.175,4.746,0.089,5.832-0.259
			c0.971-0.054,2.17-0.428,3.601-1.112c0.397,0.342,0.628,0.486,0.687,0.428c0.166-0.517,0.733-0.952,1.672-1.327
			c0.944-0.374,1.557-0.687,1.844-0.943c0.287-0.259,0.425-0.53,0.425-0.813c0-0.233-0.338-0.662-1.024-1.29
			c-0.686-0.629-1.003-1.142-0.939-1.543c-0.348-0.343-1.037-0.685-2.057-1.027c-0.238-0.286-0.748-0.315-1.551-0.089l-1.029,0.261
			c-0.741,0.572-1.338,1.059-1.801,1.457c-0.688,0.632-0.912,1.284-0.688,1.971v0.597c0,0.52-0.077,0.917-0.256,1.203
			c-1.201,0.916-1.969,1.369-2.316,1.369c-0.854,0-1.682-0.31-2.484-0.94c-0.461-0.915-0.482-1.512-0.084-1.8
			c0.686-0.798,1.455-0.771,2.314,0.088c0.059,0.343-0.017,0.54-0.217,0.6c-0.198,0.055-0.297,0.227-0.297,0.518
			c0.168,0.052,0.426,0.138,0.768,0.254c0.749-0.86,1.088-1.459,1.029-1.805c-0.743-0.738-0.936-1.511-0.6-2.313
			c-0.336,0.169-0.826,0.204-1.454,0.086c-0.517-0.398-1.289-1.398-2.315-3.001c1.543-0.628,2.572-1.401,3.086-2.312l1.283,0.771
			c-0.115-0.169-0.17-0.372-0.17-0.605c0-0.339,0.084-0.737,0.256-1.2c0.46-0.34,0.977-0.909,1.546-1.711
			c0.398,0,0.655,0.079,0.772,0.254c-0.117,0.802,0.8,1.689,2.744,2.657c0.91,0.175,2.598-0.221,5.059-1.2
			c0.518-0.909,1.197-1.481,2.056-1.711c0.23,0.86,1.147,2.655,2.749,5.399c-0.403,0.744-0.606,1.203-0.606,1.375
			c0.177,0,0.329-0.089,0.476-0.261c0.14-0.168,0.24-0.254,0.297-0.254c0.401,0.113,1.147,0.527,2.23,1.241
			c1.084,0.72,2.001,1.072,2.744,1.072c0.059,0.057,0.083,0.257,0.083,0.6c-0.166,0.174-0.425,0.257-0.767,0.257
			c-0.233,0-0.484-0.06-0.773-0.174c-0.744-0.112-1.229,0.174-1.458,0.86v6.946c-0.743,0.06-1.629,0.375-2.655,0.941
			c0.625,0.409,1.511,0.602,2.655,0.602v2.148c0,0.168,0.484,0.855,1.458,2.056c0.454-0.457,0.971-0.743,1.54-0.86
			C2499.725,128.777,2499.897,129.067,2499.837,129.295z M2490.407,122.946h-0.34c-1.142-1.086-1.543-2.06-1.203-2.915
			c-1.377,0.802-2.255,1.146-2.661,1.032c-0.335,0.396-0.909,0.732-1.714,0.984c-0.795,0.257-1.311,0.477-1.538,0.643
			c0.059,0.459-0.118,0.976-0.517,1.55c-0.168-0.177-0.486-0.262-0.941-0.262c-0.345,0.343-0.428,0.6-0.26,0.772l1.111-0.173
			c0.229,0.229,0.35,0.601,0.35,1.114c0,0.284-0.062,0.664-0.174,1.118c0.974,0.801,2.627,1.71,4.967,2.738l-0.249,0.347
			c0.519,0.111,1.195-0.231,2.058-1.03v-5.229C2489.637,123.637,2490.012,123.407,2490.407,122.946z"/>
		<path fill="#FBB515" d="M2543.228,126.126c0.118,0.283,0.172,0.537,0.172,0.771c0,0.343-0.415,0.73-1.241,1.152
			c-0.832,0.432-1.361,0.816-1.586,1.159c-1.15,2.002-2.033,3.889-2.661,5.656c-0.286,0.805-0.832,1.089-1.629,0.861
			c-0.802-0.399-1.663-1.261-2.567-2.57c-1.835-0.637-2.955-1.461-3.351-2.49c-1.937,0.805-3.515,1.915-4.716,3.343
			c-0.401-0.051-0.8,0.229-1.198,0.856c-0.401,0.631-0.685,0.946-0.856,0.946c-0.636,0-1.689-1.316-3.174-3.945
			c-0.228-0.114-0.428-0.286-0.602-0.514c0.174-0.687,0.254-1.086,0.254-1.2c-0.511,0.228-0.969,0.346-1.367,0.346
			c-0.406,0-0.743-0.118-1.029-0.346c-0.909-1.374-2.174-2.084-3.771-2.143c0-0.112-0.145-0.318-0.43-0.602
			c-0.287-0.281-0.34-0.569-0.166-0.858c1.426-0.396,2.137-1.254,2.137-2.57c0.286,0,0.658-0.026,1.115-0.083
			c0,0.855,0.262,1.003,0.771,0.426h0.091l-1.977-1.889c0-0.572,0.262-1.316,0.775-2.23c0.228,0.118,0.428,0.172,0.602,0.172
			c0.049-0.054,0.08-0.311,0.08-0.771c-0.059-0.171-0.313-0.284-0.772-0.343c-0.454-0.057-0.685-0.198-0.685-0.428
			c0.171-2.688-0.372-4.261-1.626-4.718c-0.12-0.171-0.286-0.632-0.511-1.37c0.225-0.229,0.625-0.257,1.195-0.085
			c0.569,0.112,1.029,0.112,1.369,0c0.348-0.172,0.775-0.345,1.289-0.521c0.57-0.163,1.027-0.052,1.372,0.35
			c0,0.172,0.115,0.284,0.345,0.343c0.225,0.168,0.429,0.143,0.597-0.086c0.517-0.86,2.316-1.743,5.403-2.657
			c1.088-0.345,2.422-1.121,4.032-2.313v-3.518c0-3.089-0.062-3.804-0.174-2.143c0.057-0.802,0.398-1.214,1.024-1.248
			c0.631-0.025,1.118-0.295,1.466-0.811c-0.744,0.114-1.522-0.115-2.316-0.686v-8.577c-0.235,0.116-0.772,0.6-1.634,1.461
			c-0.629,0.631-0.941,1.255-0.941,1.879v0.603c0,0.229,0.163,0.477,0.477,0.733c0.307,0.254,0.465,0.47,0.465,0.642
			c0,0.514-0.537,0.717-1.629,0.602c-0.342-0.174-0.714-0.714-1.113-1.631c0-1.257,0.6-2.482,1.801-3.688
			c0.965-0.969,1.969-1.972,3.006-3.001c0.511-0.339,1.078-0.909,1.712-1.717c0.174-0.167,0.449-0.167,0.854,0
			c0.401,0.117,0.684,0.203,0.86,0.262c0.398,0,0.544-0.288,0.426-0.861c-0.629-0.229-0.832-0.631-0.603-1.201
			c1.092-1.086,2.319-2.631,3.691-4.628c0.112-0.057,0.313,0.114,0.594,0.513c0.064,1.484,0.088,6.119,0.088,13.891l-1.794,1.806
			l0.938,0.597c0.343,0.23,0.626,0.257,0.855,0.085v8.832l-1.885,1.377c1.252,0.222,1.885,0.623,1.885,1.195v6.002h-1.54
			c0.117,0.058,0.332,0.315,0.645,0.772c0.311,0.455,0.615,0.686,0.896,0.686v8.919c0.629,0.917,1.632,1.743,3.004,2.487
			c0.401-0.168,0.689-0.26,0.861-0.26c0.229,0,0.337,0.092,0.337,0.26c-0.054-0.569,0.433-1.112,1.463-1.629L2543.228,126.126z
			 M2532.512,117.804c0.112-0.29,0.026-0.482-0.26-0.6c-0.056-0.059-0.26-0.059-0.599,0c-0.343,0-0.544-0.026-0.6-0.088
			c-0.516-0.573-0.719-1.458-0.604-2.659c0.174-1.712,0.201-2.686,0.089-2.915c-1.196,0.803-3.084,1.661-5.659,2.573v2.744
			c0,2-0.517,3.254-1.543,3.771c0.855,0.289,1.369,0.717,1.543,1.289v3.859l1.714,1.803c0.056,0.109-0.229,0.658-0.854,1.627
			c0.112,0,0.228,0.031,0.343,0.087c0.452-0.171,0.682-0.228,0.682-0.171c-0.115-0.517,0-0.773,0.345-0.773
			c0.115,0,0.303,0.06,0.56,0.17c0.257,0.114,0.441,0.171,0.557,0.171c0.109,0,0.339,0.146,0.687,0.433
			c0.34,0.284,0.655,0.425,0.941,0.425c0.23,0,0.455-0.114,0.686-0.341c-0.23-1.774,0.313-3.347,1.625-4.719h-0.51
			c-0.573-0.168-0.939-0.566-1.115-1.2c-0.055-0.396-0.055-1.048,0-1.974c0.059-0.571,0.112-1.159,0.176-1.756
			c0.046-0.602,0.354-0.984,0.891-1.159C2532.148,118.229,2532.445,118.03,2532.512,117.804z"/>
		<path fill="#FBB515" d="M2566.553,118.575c0.168,0.341-0.027,0.583-0.604,0.73c-0.569,0.143-1.025,0.186-1.372,0.127
			c-0.68-0.229-1.084-0.37-1.193-0.427c-0.403,0-0.719,0.169-0.948,0.509c-3.542-0.34-6.602,0.941-9.177,3.865
			c0.179,0.572,0.403,0.86,0.689,0.86c0.175,0,0.429-0.104,0.768-0.305c0.351-0.2,0.578-0.299,0.693-0.299
			c0.227,0,0.425,0.086,0.599,0.259c0.229,0.798-0.197,1.514-1.292,2.14c-1.316,0.117-2.172-0.174-2.564-0.856v1.37
			c0.339,0.174,0.738,0.46,1.195,0.858c0.974,0.631,2.063,1.318,3.261,2.055c0.224-0.108,0.885-0.567,1.971-1.367
			c0.802-0.572,1.481-0.735,2.063-0.514c0.05,0.339,0.087,0.915,0.087,1.714c-1.034,0.113-2.037,0.601-3.006,1.456l-2.749,2.575
			c-1.251,1.597-1.909,2.312-1.968,2.14c-0.23,0.398-0.886,0.029-1.975-1.118l-1.022-1.021c-0.229-0.171-0.286-0.578-0.173-1.204
			c-0.113,0.059-0.321,0.088-0.599,0.088c-0.231,0-0.517-0.029-0.862-0.088c-1.085-0.566-2.685-1.543-4.803-2.914
			c-0.398-0.912-0.567-1.456-0.514-1.627c0.915-0.112,1.463-0.829,1.629-2.146c0.062-0.345,0.083-1.658,0.083-3.944
			c0.18-0.06,0.66-0.145,1.465-0.254c0.57-0.121,0.859-0.434,0.859-0.949c-0.351,0.117-0.72,0.032-1.118-0.257
			c-0.628-0.455-0.977-0.685-1.026-0.685c-0.289-0.115-0.429-0.543-0.429-1.289v-0.343c0-0.971-0.401-1.454-1.206-1.454
			c-0.283,0.058-0.599-0.055-0.941-0.346c0.174-0.856,0.602-1.343,1.289-1.458c0.683-0.112,1.396-0.225,2.14-0.342
			c1.027-0.283,1.77-0.429,2.23-0.429c0.575,0,1.115,0.172,1.626,0.517c0.12-0.855,1.228-1.629,3.347-2.318l4.46-2.399
			c0.225,0,0.515,0.086,0.859,0.258c0.339,0.168,0.569,0.168,0.688,0c-0.063-0.347-0.261-0.828-0.603-1.459
			c1.313-0.625,2.058-0.743,2.231-0.34l0.087,2.058c0.909,1.77,2.31,4.316,4.196,7.627
			C2565.491,117.458,2566.034,117.776,2566.553,118.575z M2557.464,116.771l-1.2,0.089c-0.454-0.228-0.886-0.685-1.292-1.37
			c-0.57-0.863-0.942-1.374-1.107-1.545l-1.714,0.855v6.516c1.142-0.686,2.88-1.597,5.226-2.74
			c-0.228-0.175-0.443-0.331-0.645-0.475c-0.195-0.14-0.243-0.297-0.125-0.472C2556.775,117.346,2557.061,117.06,2557.464,116.771z"
			/>
		<path fill="#FBB515" d="M2629.058,99.282c0.057,2.915-0.54,5.207-1.791,6.858c-0.064,0-0.349-0.057-0.861-0.172
			c-0.29,0-0.439,0.206-0.439,0.596c0.067,0.175,0.091,0.348,0.091,0.522c0,0.111-0.023,0.259-0.091,0.424
			c-0.222,0.284-0.388,0.576-0.502,0.859c-0.292,0.118-0.744,0.443-1.369,0.99c-0.638,0.537-1.095,0.81-1.378,0.81
			c-0.286,0-0.569-0.144-0.858-0.427c0.059-0.347-0.054-0.828-0.34-1.459c-0.403,0.171-0.573,0.511-0.519,1.03v1.629
			c-2.116,1.486-5.488,2.431-10.12,2.829l-0.768-0.685c-0.349,0.685-1.03,1.027-2.06,1.027c-1.03,0-2.116-0.139-3.258-0.429
			c-0.286-0.059-1.08-0.171-2.405-0.339c0.06,0.339-0.01,0.756-0.205,1.237c-0.206,0.487-0.305,0.816-0.305,0.988
			c0,0.229,0.027,0.402,0.083,0.516c-1.426,0.912-2.055,1.912-1.88,3.001c0.685-0.746,1.048-1.116,1.111-1.116
			c0.115,0,0.257,0.084,0.431,0.255l0.765,0.604c-0.055,1.316-0.079,3.29-0.079,5.918c0.681,0.115,1.597,0.53,2.743,1.242
			c1.14,0.716,1.624,1.074,1.459,1.074c0-0.404,0.368-0.976,1.115-1.714c0.737-0.746,1.169-1.29,1.283-1.631
			c0.056-0.057,0.145-0.086,0.257-0.086c0.404,0,0.861,0.227,1.374,0.685c0.226,0.227,0.338,0.459,0.338,0.688
			c0,0.17-0.252,0.438-0.768,0.813c-0.52,0.372-0.773,0.672-0.773,0.901c-0.46,0.517-1.434,1.941-2.915,4.284
			c-0.738,1.432-1.802,3.258-3.172,5.488l-2.23-2.23c-0.918-0.744-1.769-1.143-2.576-1.201c-0.628-0.566-1.649-1.112-3.083-1.626
			c-1.6-0.517-2.683-0.94-3.261-1.286c-0.283,0.06-0.487,0.06-0.594,0c0.056,0.174,0.086-0.171,0.086-1.027
			c-0.12-0.115-0.233-0.174-0.346-0.174c-0.403,0-0.803,0.403-1.2,1.201c-0.457-0.342-0.914-0.517-1.372-0.517
			c-0.229,0-0.543,0.057-0.949,0.175c-0.396,0.115-0.677,0.171-0.856,0.171c-0.623,0-1.142-0.461-1.54-1.373
			c-0.345,0.057-0.455,0.258-0.345,0.601c0.057,0.227,0.088,0.402,0.088,0.518c0,0.17-0.031,0.281-0.088,0.34
			c-2.625,2.174-3.943,3.633-3.943,4.376c0,0.171,0.073,0.343,0.218,0.511c0.142,0.177,0.813,0.912,2.013,2.23
			c-0.173-0.513-0.028-1.029,0.432-1.545c0.398-0.057,0.772-0.082,1.115-0.082c0.794,0,1.481,0.228,2.051,0.683
			c0.348,0.626,0.522,1.398,0.522,2.319l-0.773,0.425c-0.459-1.145-0.806-1.718-1.027-1.718c-0.174,0-0.342,0.063-0.519,0.177
			c-0.229,0.455-0.677,1.055-1.329,1.801c-0.653,0.737-0.894,1.486-0.73,2.23l-0.511,0.511c-0.458-0.629-1.26-1.567-2.401-2.829
			c0.342-0.686,0.519-1.258,0.519-1.713c-1.318,0-2.064-0.232-2.23-0.689c-0.463-1.598-0.631-2.773-0.523-3.515
			c0.293-1.768,0.633-2.858,1.043-3.257c0.224-0.627,0.9-1.659,2.048-3.084c0.457-0.233,1.916-0.861,4.373-1.888
			c0.398,0.055,0.917,0.254,1.54,0.599c0.295-0.8,1.146-1.272,2.572-1.413c1.427-0.146,2.288-0.446,2.579-0.905
			c0.056-0.049,0.385-0.258,0.983-0.599c0.597-0.343,0.902-0.744,0.902-1.199c0-0.112-0.032-0.313-0.091-0.604l-0.166-0.083
			c-0.808,0.918-1.549,1.26-2.228,1.029v-2.572c0.28,0,0.824-0.428,1.631-1.287c0-0.115-0.548-0.46-1.631-1.025v-3.518
			c-0.292-0.118-0.829-0.118-1.638,0c-0.679,0.171-1.252,0.112-1.706-0.171c-0.637,0.342-1.484,1.085-2.575,2.229l0.169,0.084
			c0.288-0.573,0.689-0.856,1.197-0.856c0.228,0,0.522,0.083,0.856,0.26c0.748,0.74,0.832,1.428,0.26,2.054
			c-0.909,1.027-1.91,1.429-3.001,1.198c-0.11-0.171-0.423-0.514-0.939-1.024c-0.406-0.345-0.604-0.714-0.604-1.115
			c0-1.826,0.886-3.204,2.662-4.113c0.566,0,1.44-0.228,2.612-0.69c1.174-0.452,2.072-0.655,2.707-0.599
			c0.171-0.172,0.229-0.891,0.171-2.146c0-1.03,0.168-1.54,0.508-1.54c0.231,0,0.458,0.054,0.688,0.174
			c0.743-0.401,1.118-0.805,1.118-1.206c0,0.115-0.23-0.228-0.688-1.024l-1.797,0.425v-7.975l1.366-0.683
			c0.454-0.232,0.661-0.483,0.604-0.773c-0.634-0.171-1.292-0.628-1.971-1.372v-5.912l-1.375-0.434
			c-0.512,0.401-1.515,1.059-2.998,1.974c-0.688,0.343-1.603,1.254-2.747,2.744c0.062,0.114,0.142,0.176,0.26,0.176
			c0.111-0.062,0.241-0.149,0.386-0.262c0.142-0.115,0.27-0.142,0.382-0.088c0.685,0.629,0.944,1.232,0.773,1.802
			c-0.512,0.8-1.14,1.201-1.895,1.201c-0.393,0-0.791-0.083-1.195-0.262c-0.969-1.14-1.455-1.856-1.455-2.138
			c0-0.288,0.08-0.516,0.257-0.691c0-0.792,0.487-1.354,1.457-1.666c0.975-0.311,1.461-0.792,1.461-1.418
			c1.257-0.855,3.112-2.11,5.576-3.774l0.938,0.086c0.175-0.685,0.715-1.514,1.627-2.486c0.742-0.688,1.802-1.801,3.172-3.344
			c0.513-0.686,0.976-1.112,1.374-1.287c-0.167-0.401-0.056-0.714,0.341-0.943c0.114,0.056,0.488,0,1.117-0.175
			c0.569-0.106,0.859,0.123,0.859,0.686c-0.29,0.35-0.432,0.717-0.432,1.12c0,0.514,0.406,1.027,1.196,1.538
			c1.089,0.746,1.634,1.18,1.634,1.294c2.286,0.052,3.944-0.2,4.974-0.774l0.856,0.857c0.515-0.061,0.775-0.256,0.775-0.602v-1.115
			c0.055-0.342,0.34-0.483,0.851-0.427c0.805-0.115,1.874-0.542,3.224-1.284c1.342-0.744,2.383-1.17,3.122-1.293
			c0-0.564,0.322-0.851,0.951-0.851h1.451c0.343-0.114,0.518,0.113,0.518,0.68c0.173,0.346-0.057,0.806-0.688,1.375
			c-0.115,0.114-0.372,0.026-0.773-0.257l-0.508,0.257c0.796,1.03,1.601,2.06,2.401,3.086c0.967,1.37,1.313,2.514,1.023,3.429
			c0.226,0.172,0.37,0.26,0.437,0.26c0.222-0.34,0.596-0.428,1.107-0.26c1.256,0.918,2.401,2.319,3.432,4.205l2.658,4.801
			c0.053,0.062,0.163,0.403,0.339,1.029c0.118,0.401,0.118,0.715,0,0.942c-0.917,1.029-1.34,1.689-1.283,1.973
			c0.455,0.06,0.901,0.132,1.328,0.217C2628.761,98.643,2629.004,98.881,2629.058,99.282z M2617.917,105.453
			c-0.401-0.453-0.596-1.001-0.596-1.624c0-0.286,0.077-0.816,0.253-1.586c0.171-0.775,0.226-1.358,0.171-1.76
			c-0.114-0.054-0.347-0.313-0.685-0.773c0.167-0.054,0.283-0.085,0.338-0.085l-0.939-1.543c0.225,0,0.286-0.115,0.168-0.347
			l-0.25,0.347l-1.972-2.831c-0.406-0.227-0.607-0.539-0.607-0.94c0-0.226,0.26-0.661,0.773-1.287
			c0.519-0.628,0.744-1.06,0.692-1.289l-1.548,1.03c-0.626,0.229-1.515-0.369-2.659-1.801c-0.176-0.627-0.257-1.171-0.257-1.628
			c0-0.628,0.198-1.029,0.6-1.198c-0.583,0.398-1.116,0.6-1.635,0.6c-0.625,0-1.452-0.6-2.484-1.801
			c-1.198-1.492-1.938-2.318-2.226-2.493c-0.288,0.233-0.662,0.349-1.114,0.349c-0.343,0-0.714-0.063-1.118-0.174v8.059
			c-0.225,0.288-0.655,0.438-1.282,0.438h-1.374c0.57,0.453,1.341,1.17,2.322,2.137v9.348c-0.124,0.228-0.549,0.431-1.293,0.6
			c-0.063,0.342,0.193,0.805,0.769,1.366c0.524,0.229,0.776,0.781,0.776,1.632v1.974c0.456,0.345,1.053,0.487,1.802,0.434
			c0.679-0.059,1.337-0.089,1.972-0.089c0.165,0.172,0.339,0.257,0.51,0.257c0.228,0,0.487-0.168,0.773-0.513
			c1.03,0.168,2.415-0.188,4.158-1.073c1.745-0.885,2.988-1.468,3.732-1.757C2616.547,106.057,2617.283,105.401,2617.917,105.453z"
			/>
		<path fill="#FBB515" d="M2646.729,129.295c-0.572,0.515-1.461,1.172-2.661,1.972l-3.517,4.199
			c-0.626-0.06-1.744-0.972-3.346-2.739c-0.113-0.288-0.171-0.517-0.171-0.692c0-0.169,0.058-0.297,0.171-0.383
			c0.117-0.088,0.176-0.27,0.176-0.556c-0.115-0.113-0.289-0.175-0.514-0.175c-0.406,0-2.057,1.146-4.978,3.427
			c0,0.403-0.28,0.866-0.855,1.378c-0.286-0.399-0.814-0.975-1.586-1.718c-0.77-0.74-1.107-1.372-0.986-1.886l-0.264-0.257
			c-0.565,0.861-1.051,1.001-1.452,0.429c-0.86-0.517-2.171-1.399-3.94-2.659c-0.06,0.118-0.345,0.201-0.859,0.261
			c-0.169-1.084-0.259-1.6-0.259-1.545c0.914-0.397,1.404-1.203,1.456-2.404c-0.052-0.971-0.084-1.968-0.084-3
			c-0.231,0-0.515-0.145-0.854-0.422c-0.401-0.691-0.289-1.209,0.339-1.55c2.802,0.175,4.745,0.089,5.837-0.259
			c0.962-0.054,2.169-0.428,3.594-1.112c0.401,0.342,0.631,0.486,0.69,0.428c0.165-0.517,0.725-0.952,1.669-1.327
			c0.939-0.374,1.554-0.687,1.849-0.943c0.277-0.259,0.427-0.53,0.427-0.813c0-0.233-0.348-0.662-1.035-1.29
			c-0.682-0.629-0.995-1.142-0.943-1.543c-0.34-0.343-1.022-0.685-2.055-1.027c-0.232-0.286-0.742-0.315-1.543-0.089l-1.03,0.261
			c-0.739,0.572-1.345,1.059-1.806,1.457c-0.679,0.632-0.908,1.284-0.679,1.971v0.597c0,0.52-0.088,0.917-0.253,1.203
			c-1.21,0.916-1.977,1.369-2.319,1.369c-0.853,0-1.69-0.31-2.486-0.94c-0.464-0.915-0.487-1.512-0.089-1.8
			c0.688-0.798,1.459-0.771,2.316,0.088c0.059,0.343-0.014,0.54-0.22,0.6c-0.192,0.055-0.295,0.227-0.295,0.518
			c0.172,0.052,0.429,0.138,0.773,0.254c0.744-0.86,1.086-1.459,1.019-1.805c-0.732-0.738-0.931-1.511-0.594-2.313
			c-0.337,0.169-0.824,0.204-1.457,0.086c-0.511-0.398-1.284-1.398-2.308-3.001c1.536-0.628,2.566-1.401,3.081-2.312l1.277,0.771
			c-0.104-0.169-0.157-0.372-0.157-0.605c0-0.339,0.077-0.737,0.248-1.2c0.466-0.34,0.979-0.909,1.549-1.711
			c0.396,0,0.658,0.079,0.776,0.254c-0.118,0.802,0.797,1.689,2.736,2.657c0.914,0.175,2.604-0.221,5.065-1.2
			c0.508-0.909,1.197-1.481,2.058-1.711c0.226,0.86,1.137,2.655,2.74,5.399c-0.404,0.744-0.601,1.203-0.601,1.375
			c0.17,0,0.327-0.089,0.472-0.261c0.137-0.168,0.243-0.254,0.305-0.254c0.396,0.113,1.134,0.527,2.221,1.241
			c1.091,0.72,2.003,1.072,2.746,1.072c0.058,0.057,0.092,0.257,0.092,0.6c-0.178,0.174-0.434,0.257-0.771,0.257
			c-0.231,0-0.495-0.06-0.773-0.174c-0.748-0.112-1.234,0.174-1.459,0.86v6.946c-0.747,0.06-1.631,0.375-2.661,0.941
			c0.629,0.409,1.516,0.602,2.661,0.602v2.148c0,0.168,0.485,0.855,1.459,2.056c0.453-0.457,0.964-0.743,1.545-0.86
			C2646.611,128.777,2646.783,129.067,2646.729,129.295z M2637.292,122.946h-0.341c-1.143-1.086-1.549-2.06-1.204-2.915
			c-1.366,0.802-2.254,1.146-2.655,1.032c-0.342,0.396-0.92,0.732-1.712,0.984c-0.808,0.257-1.318,0.477-1.548,0.643
			c0.056,0.459-0.117,0.976-0.512,1.55c-0.17-0.177-0.491-0.262-0.938-0.262c-0.348,0.343-0.434,0.6-0.271,0.772l1.124-0.173
			c0.229,0.229,0.338,0.601,0.338,1.114c0,0.284-0.058,0.664-0.171,1.118c0.974,0.801,2.63,1.71,4.978,2.738l-0.259,0.347
			c0.511,0.111,1.201-0.231,2.063-1.03v-5.229C2636.518,123.637,2636.892,123.407,2637.292,122.946z"/>
		<path fill="#FBB515" d="M2662.305,130.48c-0.8,0.668-1.605,1.845-2.415,3.515c-0.398-0.132-0.972,0-1.701,0.406
			c0,1.072-0.906,2.92-2.72,5.536l-0.707-0.104l-2.01-2.009c-0.735-0.805-1.144-1.578-1.204-2.318c0.332-0.337,0.5-0.602,0.5-0.803
			c0-0.132-0.031-0.235-0.102-0.302l-0.197-0.104c-0.141,0.337-0.544,0.506-1.212,0.506c-0.335,0-0.7-0.03-1.104-0.1
			c-1.475-1.477-2.716-2.479-3.726-3.015c0.203-0.604,0.636-1.314,1.305-2.117c0.471-0.134,0.809,0.066,1.017,0.604
			c0.129,0.271,0.3,0.437,0.5,0.509c0.136-0.203,0.045-0.661-0.255-1.361c-0.305-0.709-0.453-1.16-0.453-1.361
			c0-0.332,0.234-0.636,0.708-0.907v-9.459c0.136-0.195,0.669-0.398,1.605-0.599c0.938-0.204,1.345-0.542,1.207-1.012
			c-0.136-0.266-0.653-0.514-1.556-0.751c-0.909-0.238-1.33-0.653-1.257-1.255c0.335-0.741,0.768-1.241,1.309-1.509
			c0.395,0,0.669-0.134,0.799-0.403c0-0.602-0.13-1.003-0.404-1.206c-0.535,0.064-1.101-0.069-1.703-0.404v-5.332
			c0.061-0.469,0.449-0.703,1.156-0.703c0.708,0,1.088-0.167,1.157-0.506c-1.206-0.472-1.947-1.574-2.215-3.316
			c-0.069-0.608-0.099-2.517-0.099-5.737c-0.474,0.335-1.013,0.971-1.613,1.909c-0.064,0.334,0.033,0.84,0.301,1.509l0.203,1.107
			c-0.268,0.2-0.541,0.305-0.803,0.305c-0.936,0-1.41-0.572-1.41-1.714c0-0.939,0.332-1.974,1.003-3.116
			c0.065-0.064,0.739-1.006,2.017-2.818c0.872-1.207,1.843-1.944,2.918-2.212c0.939,0.604,1.268,0.903,1.009,0.903
			c0.198-0.265,0.294-0.468,0.294-0.602c0-0.271-0.085-0.607-0.243-1.006c-0.175-0.4-0.257-0.706-0.257-0.906
			c0-0.137,0.07-0.268,0.206-0.406c0.398-0.396,1.001-1.44,1.806-3.122c0.668-1.404,1.412-2.375,2.217-2.915l0.904,0.907v13.989
			l-2.614,1.708c0.401,0.539,0.769,0.703,1.103,0.499c0.137-0.062,0.436-0.096,0.907-0.096c0,0.536,0.265,0.965,0.808,1.308v10.16
			c-0.203,0.271-0.439,0.572-0.709,0.901c-0.267,0.34-0.602,0.409-1.006,0.209c-0.264,0.265-0.334,0.47-0.197,0.602l0.099,0.102
			c0.334,0,0.765-0.038,1.306-0.102c0.47,0.936,0.702,3.856,0.702,8.751c-0.863,0.541-1.302,0.94-1.302,1.208
			c0,0.204,0.035,0.338,0.096,0.401c0.939,0.07,1.41,1.413,1.41,4.031l2.918,3.721l1-0.3
			C2662.011,129.777,2662.242,130.01,2662.305,130.48z"/>
		<path fill="#FBB515" d="M2683.337,128.351c-0.401,0.688-0.952,0.987-1.669,0.902c-0.717-0.092-1.559,0.013-2.53,0.296
			c-0.46,0.177-0.775,0.261-0.947,0.261c-0.396,0-0.654-0.228-0.767-0.686c0,0.511-0.147,0.829-0.431,0.941
			c-0.284,0.116-0.715,0.401-1.281,0.855c-1.204,1.089-2.118,1.576-2.747,1.459c0.109,0.576,0.024,1.062-0.256,1.463
			c-0.343,0.056-0.741,0.357-1.198,0.895c-0.469,0.544-0.775,0.844-0.95,0.9c-0.513-0.565-1.399-1.4-2.656-2.482
			c-0.406-0.46-0.486-0.805-0.259-1.033l0.861-0.855c-0.174-0.115-0.489-0.171-0.947-0.171c-0.286,0-0.604,0.029-0.933,0.088
			c-0.979,0.109-1.693-0.117-2.15-0.687c-0.516-0.231-1.26-0.661-2.23-1.289c-0.281-0.057-0.658-0.227-1.118-0.517
			c0.059-0.171,0.487-0.452,1.291-0.854c0.63-0.289,0.832-0.69,0.603-1.2c0.107-0.057,0.483-0.204,1.104-0.431
			c0.117-0.055,0.205-0.284,0.265-0.683c-0.808,0.115-1.262,0-1.369-0.346c-0.059-0.857-0.088-1.746-0.088-2.654l1.802-1.209
			c-0.234-0.113-0.345-0.37-0.345-0.766c-0.06,0-0.272,0.099-0.643,0.291c-0.37,0.207-0.645,0.309-0.814,0.309
			c-0.172,0-0.29-0.204-0.348-0.6c0-1.889-0.115-2.978-0.34-3.266c-0.345,0.062-0.776-0.106-1.289-0.514
			c-0.163-0.452,0.147-0.77,0.944-0.938c0.631-0.062,1.228-0.115,1.802-0.174c0.573-0.056,1.146-0.169,1.715-0.343
			c0.973-0.228,1.976-0.486,3.001-0.772c0.685-0.169,2.23-1.027,4.632-2.567c0.229-0.06,0.577,0.111,1.069,0.513
			c0.487,0.396,0.844,0.541,1.073,0.429c0-0.23-0.175-0.474-0.517-0.733c-0.339-0.256-0.511-0.436-0.511-0.556
			c0-0.054,0.057-0.172,0.172-0.343c0.681-0.452,1.629-1.168,2.826-2.145c0.631-0.114,0.939,0.174,0.939,0.861
			c-0.113,0.229-0.284,0.425-0.512,0.602c0.512,0.971,1.803,2.37,3.862,4.196c0.284,0.229,0.829,0.516,1.627,0.858
			c0.395,0.23,0.518,0.569,0.347,1.029c-0.347,0.458-0.786,0.658-1.331,0.597c-0.547-0.054-0.851,0.062-0.905,0.345
			c-0.056,0.175-0.056,1.175,0,3.001c0.055,1.092-0.28,1.829-1.023,2.23l-0.431,0.429c0.463-0.049,0.974,0.259,1.545,0.951
			c0,1.252,0.055,2.022,0.172,2.309C2681.684,127.067,2682.316,127.664,2683.337,128.351z M2673.736,117.458
			c-0.348-0.457-0.714-0.688-1.115-0.688c-0.286,0-0.773,0.178-1.46,0.514c-0.683,0.345-1.169,0.52-1.455,0.52
			c0.059,0.456,0.086,1.941,0.086,4.458c-0.229,0.059-0.744,0.086-1.549,0.086c-0.054,0,0,0.177,0.177,0.513l0.943,0.343
			c0.509,0.291,0.738,1.059,0.686,2.321c-0.057,0.567,0.072,0.981,0.388,1.243c0.313,0.252,0.622,0.482,0.941,0.685
			c0.312,0.195,0.47,0.413,0.47,0.643c0,0.227-0.168,0.501-0.513,0.813c-0.338,0.316-0.514,0.501-0.514,0.555
			c0.283-0.054,0.738-0.254,1.372-0.597c0.056,0,0.254-0.088,0.599-0.258c0.174-0.173,0.372-0.142,0.597,0.084
			c0.46,0.29,0.979,0.631,1.552,1.034l0.51-0.347v-4.37c0.113-0.229,0.399-0.315,0.854-0.258c0.46,0.057,0.775,0.057,0.946,0
			c-0.229-0.742-0.857-1.344-1.885-1.805v-3.169c0-0.174-0.346-0.688-1.026-1.549L2673.736,117.458z"/>
	</g>
	<g>
		<path fill="#FFFFFF" d="M2330.421,48.004c0,0,33.015-22.39,18.32-36.709c-14.688-14.328-32.757,17.761-32.757,17.761
			s-21.367-26.186-33.523-7.833c-12.152,18.344,21.803,30.036,21.803,30.036l25.991,136.037c0,0-28.729,22.848-17.261,34.228
			c18.148,18,31.391-22.68,31.391-22.68s22.281,29.621,37.887,14.224c15.619-15.403-26.299-30.738-26.299-30.738L2330.421,48.004z"
			/>
		<path fill="#B5B7BA" d="M2357.479,211.73c-7.523-5.477-13.094-12.888-13.094-12.888s-13.242,40.68-31.391,22.68
			c-11.469-11.38,17.261-34.228,17.261-34.228l-25.991-136.037c0,0-33.955-11.692-21.803-30.036
			c5.111-7.708,11.844-7.561,17.923-4.795c0,0-26.208,1.661,14.052,31.563l26.253,139.056L2357.479,211.73z"/>
		<path fill="#232020" d="M2279.269,18.779c3.081-4.726,7.248-7.445,11.476-8.09l0,0c7.711-1.123,14.496,3.191,19.583,7.186l0,0
			c1.979,1.597,3.707,3.199,5.087,4.58l0,0c1.193-1.768,2.747-3.908,4.563-6.12l0,0c4.499-5.338,10.455-11.364,18.088-12.733l0,0
			c4.381-0.787,9.337,0.609,13.311,4.575l0,0c2.748,2.635,4.438,5.936,4.895,9.324l0,0c0.666,4.868-0.93,9.355-3.15,13.26l0,0
			c-2.263,3.926-5.279,7.452-8.31,10.495l0,0c-3.829,3.846-7.694,6.916-10.034,8.671l0,0l24.615,129.269
			c4.684,1.889,15.98,6.819,23.488,13.712l0,0c3.174,3.009,5.95,6.504,6.667,11.18l0,0c0.663,4.229-1.112,8.729-4.618,12.075l0,0
			c-3.041,3.014-6.545,4.76-10.055,5.316l0,0c-9.162,1.344-17.279-4.119-23.337-9.248l0,0c-2.276-1.971-4.274-3.961-5.879-5.683l0,0
			c-2.152,5.036-5.724,12.091-10.623,17.354l0,0c-2.858,2.992-6.313,5.527-10.562,6.24l0,0c-4.65,0.807-9.719-1.07-14.14-5.533l0,0
			c-2.118-2.076-3.448-4.797-3.819-7.55l0,0c-0.602-4.513,0.88-8.631,2.872-12.354l0,0c2.038-3.742,4.751-7.205,7.476-10.254l0,0
			c3.477-3.876,6.982-7.056,9.08-8.88l0,0L2300.86,54.406c-4.08-1.631-12.928-5.614-19.104-12.104l0,0
			c-2.718-2.902-5.031-6.502-5.676-10.95l0,0c-0.005-0.034-0.005-0.067-0.01-0.099l0,0
			C2275.493,27.226,2276.565,22.805,2279.269,18.779L2279.269,18.779z M2348.53,18.764c-0.219-1.399-0.783-2.728-2.42-4.36l0,0
			c-2.572-2.417-4.504-2.805-6.865-2.484l0,0c-3.598,0.495-8.195,4.036-11.873,8.214l0,0c-3.701,4.124-6.573,8.636-7.605,10.36l0,0
			c-0.297,0.498-0.431,0.734-0.431,0.734l0,0l-2.769,4.921l-3.53-4.328c-0.005,0.002-0.146-0.18-0.495-0.581l0,0
			c-0.347-0.395-0.869-0.971-1.523-1.66l0,0c-1.316-1.385-3.204-3.223-5.376-4.969l0,0c-4.354-3.578-9.906-6.357-13.723-5.601l0,0
			c-2.126,0.38-4.087,1.429-6.267,4.651l0,0c-1.784,2.752-2.049,4.652-1.824,6.432l0,0c0.332,3.364,4.068,7.585,8.85,10.73l0,0
			c4.689,3.17,9.926,5.355,11.939,6.114l0,0c0.572,0.222,0.854,0.311,0.854,0.311v0.005l2.193,0.751l26.921,141.08l-1.997,1.589
			c0,0-0.672,0.535-1.849,1.554l0,0c-1.166,1.014-2.787,2.474-4.567,4.225l0,0c-3.55,3.48-7.703,8.196-10.012,12.478l0,0
			c-1.57,2.861-2.155,5.381-1.904,6.862l0,0c0.155,0.939,0.457,1.675,1.396,2.644l0,0c3.352,3.228,5.584,3.686,7.644,3.391l0,0
			c3.33-0.38,7.577-4.64,10.765-10.013l0,0c3.218-5.271,5.494-11.138,6.293-13.39l0,0c0.235-0.649,0.335-0.962,0.335-0.962l0,0
			l2.321-7.134l4.426,5.879c0,0,0.188,0.254,0.607,0.773l0,0c0.426,0.521,1.057,1.28,1.854,2.188l0,0
			c1.6,1.808,3.886,4.215,6.547,6.509l0,0c5.331,4.691,12.156,8.46,17.251,7.489l0,0c2.015-0.343,3.909-1.226,5.927-3.193l0,0
			c2.201-2.3,2.287-3.413,2.185-4.625l0,0c-0.144-1.232-1.166-3.172-3.171-5.212l0,0c-1.969-2.032-4.751-4.104-7.711-5.932l0,0
			c-5.932-3.68-12.531-6.45-15.101-7.465l0,0c-0.735-0.289-1.121-0.433-1.121-0.433l0,0l-2.136-0.782l-25.991-136.712l-0.524-2.827
			l2.278-1.532c0-0.011,0.743-0.511,2.038-1.485l0,0c1.292-0.968,3.084-2.375,5.05-4.084l0,0c3.918-3.394,8.502-8.08,11.026-12.527
			l0,0c1.693-2.936,2.37-5.568,2.098-7.521l0,0C2348.536,18.815,2348.53,18.786,2348.53,18.764L2348.53,18.764z M2330.426,47.999
			l2.084,3.555L2330.426,47.999L2330.426,47.999z"/>
	</g>
	<g>
		<g>
			<path fill="#FFFFFF" d="M2426.877,42.513c0,0-2.71-10.182,2.65-10.128c5.359,0.048,3.449,9.28,3.449,9.28s8.706-0.906,7.973,4.71
				c-0.725,5.612-9.445,1.536-9.445,1.536l-41.006,30.422c0,0,1.781,9.481-2.432,9.475c-6.67-0.01-2.342-9.938-2.342-9.938
				s-9.471,1.372-9.928-4.332c-0.455-5.7,10.459-0.84,10.459-0.84L2426.877,42.513z"/>
			<path fill="#B5B7BA" d="M2380.934,77.844c2.426,0.369,4.791,0.026,4.791,0.026s-4.328,9.928,2.342,9.938
				c4.213,0.007,2.432-9.475,2.432-9.475l41.006-30.422c0,0,8.721,4.076,9.445-1.536c0.311-2.359-1.051-3.565-2.725-4.177
				c0,0,4.902,5.113-8.182,3.25l-41.564,30.922L2380.934,77.844z"/>
			<path fill="#232020" d="M2442.001,46.509c-0.152,1.236-0.701,2.25-1.495,2.892l0,0c-0.01,0.004-0.019,0.007-0.029,0.012l0,0
				c-0.883,0.705-1.953,0.945-2.99,0.979l0,0c-2.326,0.064-4.761-0.823-5.852-1.272l-39.989,29.686l0,0
				c0.106,0.72,0.259,1.95,0.283,3.301l0,0c0.013,1.066-0.037,2.201-0.278,3.263l0,0c-0.237,1.055-0.654,2.081-1.54,2.809l0,0
				c-0.54,0.438-1.275,0.7-2.044,0.692l0,0c-1.639,0.014-2.963-0.577-3.746-1.575l0,0c-0.72-0.914-0.971-2.011-1.02-3.092l0,0
				c-0.074-1.872,0.426-3.823,0.861-5.143l0,0c-0.615,0.016-1.351,0.016-2.137-0.037l0,0c-2.073-0.166-4.619-0.645-6.205-2.577l0,0
				c-0.599-0.745-0.984-1.711-1.078-2.822l0,0c-0.123-1.261,0.297-2.418,1.156-3.076l0,0c0.938-0.73,2.083-0.869,3.23-0.832l0,0
				c2.655,0.102,5.739,1.268,6.988,1.775l39.574-29.422l0,0c-0.171-0.754-0.406-2.025-0.505-3.439l0,0
				c-0.086-1.118-0.08-2.324,0.145-3.464l0,0c0.232-1.126,0.682-2.244,1.647-3.014l0,0c0.668-0.545,1.564-0.845,2.563-0.826l0,0
				c1.463-0.007,2.676,0.647,3.409,1.596l0,0c1.284,1.653,1.429,3.857,1.412,5.668l0,0c-0.016,0.741-0.08,1.418-0.139,1.963l0,0
				c0.503-0.003,1.12,0.026,1.781,0.093l0,0c1.69,0.198,3.774,0.643,5.103,2.26l0,0C2441.841,43.811,2442.202,45.07,2442.001,46.509
				L2442.001,46.509z M2428.294,33.797c-0.008,0.005-0.008,0.011-0.008,0.011l-0.011,0.002c-0.383,0.311-0.703,0.92-0.864,1.771l0,0
				c-0.259,1.284-0.16,2.99,0.038,4.335l0,0c0.102,0.677,0.211,1.265,0.303,1.685l0,0c0.088,0.41,0.151,0.636,0.151,0.636
				l0.188,0.707l-0.588,0.422l-41.121,30.546l-0.556-0.249l0,0c0,0-0.102-0.046-0.295-0.132l0,0c-0.679-0.279-2.46-0.98-4.264-1.391
				l0,0c-0.898-0.2-1.802-0.331-2.54-0.317l0,0c-0.741,0.008-1.281,0.179-1.519,0.377l0,0c-0.23,0.206-0.401,0.431-0.354,1.258l0,0
				c0.053,0.729,0.281,1.239,0.626,1.673l0,0c0.837,1.111,2.837,1.672,4.69,1.782l0,0c0.92,0.071,1.784,0.043,2.41,0l0,0
				c0.316-0.02,0.57-0.04,0.741-0.057l0,0c0.171-0.021,0.251-0.031,0.251-0.031l1.883-0.276l-0.762,1.741l0,0
				c0,0-0.033,0.075-0.1,0.238l0,0c-0.227,0.562-0.775,2.063-1.037,3.626l0,0c-0.295,1.57-0.172,3.143,0.42,3.825l0,0
				c0.355,0.428,0.869,0.755,2.094,0.775l0,0c0.346-0.011,0.527-0.086,0.725-0.235l0,0c0.3-0.22,0.617-0.797,0.789-1.613l0,0
				c0.278-1.214,0.265-2.845,0.158-4.14l0,0c-0.051-0.649-0.123-1.215-0.185-1.616l0,0c-0.056-0.401-0.099-0.624-0.099-0.624
				l-0.123-0.664l42.048-31.172l0.562,0.26l0,0c0,0,0.072,0.037,0.217,0.099l0,0c0.532,0.23,1.947,0.788,3.421,1.063l0,0
				c1.481,0.3,2.938,0.204,3.578-0.353l0,0c0.351-0.292,0.629-0.688,0.743-1.524l0,0c0.115-0.995-0.094-1.543-0.443-2.006l0,0
				c-0.631-0.839-2.203-1.345-3.678-1.484l0,0c-0.732-0.08-1.423-0.085-1.91-0.072l0,0c-0.251,0.01-0.454,0.023-0.593,0.026l0,0
				c-0.129,0.012-0.2,0.022-0.2,0.022l-1.434,0.146l0.291-1.415l0,0c0,0,0.014-0.067,0.04-0.216l0,0
				c0.086-0.506,0.294-1.864,0.268-3.303l0,0c-0.011-1.447-0.321-2.942-0.944-3.694l0,0c-0.412-0.489-0.866-0.777-1.783-0.805l0,0
				C2428.915,33.436,2428.57,33.58,2428.294,33.797L2428.294,33.797z M2426.877,42.513l-1.017,0.27L2426.877,42.513L2426.877,42.513
				z"/>
		</g>
		<g>
			<path fill="#FFFFFF" d="M2386.848,46.603c0,0,0.594-10.521-4.641-9.379c-5.234,1.139-1.498,9.789-1.498,9.789
				s-8.707,0.874-6.857,6.228c1.852,5.35,9.57-0.408,9.57-0.408l46.306,21.486c0,0,0.179,9.645,4.304,8.788
				c6.531-1.36,0.277-10.206,0.277-10.206s9.557-0.576,8.854-6.25c-0.707-5.681-10.42,1.29-10.42,1.29L2386.848,46.603z"/>
			<path fill="#B5B7BA" d="M2438.996,71.904c-2.298,0.855-4.687,0.996-4.687,0.996s6.254,8.846-0.277,10.206
				c-4.125,0.856-4.304-8.788-4.304-8.788l-46.306-21.486c0,0-7.719,5.758-9.57,0.408c-0.78-2.249,0.308-3.706,1.824-4.642
				c0,0-3.76,6.007,8.666,1.521l46.969,21.872L2438.996,71.904z"/>
			<path fill="#232020" d="M2372.85,53.586c-0.482-1.37-0.389-2.681,0.144-3.707l0,0c0.984-1.86,2.927-2.714,4.539-3.252l0,0
				c0.631-0.204,1.238-0.348,1.735-0.449l0,0c-0.176-0.525-0.369-1.178-0.535-1.896l0,0c-0.393-1.768-0.692-3.958,0.225-5.833l0,0
				c0.53-1.081,1.586-1.963,3.02-2.26l0,0c0.979-0.216,1.912-0.11,2.684,0.289l0,0c1.096,0.562,1.768,1.57,2.217,2.63l0,0
				c0.451,1.07,0.7,2.246,0.848,3.355l0,0c0.188,1.404,0.209,2.699,0.203,3.474l0,0l44.705,20.795
				c1.125-0.754,3.901-2.517,6.492-3.156l0,0c1.113-0.259,2.264-0.358,3.336,0.163l0,0c0.969,0.471,1.609,1.522,1.746,2.782l0,0
				c0.14,1.106-0.048,2.131-0.488,2.985l0,0c-1.156,2.211-3.553,3.195-5.547,3.773l0,0c-0.763,0.216-1.482,0.364-2.087,0.462l0,0
				c0.69,1.212,1.578,3.025,1.886,4.873l0,0c0.168,1.062,0.142,2.19-0.375,3.23l0,0c-0.559,1.135-1.74,1.978-3.352,2.298l0,0
				c-0.748,0.166-1.519,0.06-2.145-0.262l0,0c-1.014-0.527-1.623-1.453-2.078-2.434l0,0c-0.449-0.993-0.727-2.097-0.928-3.143l0,0
				c-0.246-1.326-0.348-2.565-0.396-3.293l0,0l-45.172-20.968c-0.971,0.658-3.174,2.02-5.469,2.434l0,0
				c-1.02,0.17-2.119,0.155-3.129-0.353l0,0c-0.003-0.005-0.014-0.008-0.02-0.011l0,0
				C2373.989,55.647,2373.25,54.765,2372.85,53.586L2372.85,53.586z M2383.703,38.362c-0.326-0.16-0.685-0.23-1.271-0.106l0,0
				c-0.901,0.214-1.281,0.58-1.586,1.147l0,0c-0.465,0.859-0.46,2.385-0.18,3.809l0,0c0.268,1.415,0.738,2.706,0.934,3.18l0,0
				c0.049,0.139,0.081,0.201,0.081,0.201l0,0l0.569,1.331l-1.441,0.142c0,0-0.054,0.003-0.188,0.024l0,0
				c-0.137,0.019-0.345,0.051-0.588,0.094l0,0c-0.487,0.085-1.158,0.233-1.856,0.457l0,0c-1.415,0.437-2.851,1.247-3.295,2.196l0,0
				c-0.257,0.524-0.345,1.107-0.032,2.056l0,0c0.289,0.797,0.637,1.129,1.035,1.346l0,0c0.738,0.415,2.19,0.209,3.581-0.385l0,0
				c1.386-0.567,2.653-1.396,3.121-1.728l0,0c0.139-0.096,0.198-0.144,0.198-0.144l0,0l0.503-0.375l47.485,22.021l0.014,0.672
				c0,0,0.005,0.225,0.023,0.631l0,0c0.027,0.406,0.07,0.974,0.15,1.62l0,0c0.154,1.288,0.477,2.893,0.986,4.021l0,0
				c0.337,0.766,0.766,1.261,1.105,1.42l0,0c0.219,0.102,0.416,0.147,0.764,0.081l0,0c1.183-0.266,1.627-0.688,1.895-1.183l0,0
				c0.438-0.791,0.234-2.345-0.367-3.824l0,0c-0.575-1.479-1.42-2.836-1.757-3.346l0,0c-0.091-0.14-0.14-0.214-0.14-0.214l0,0
				l-1.093-1.549l1.89-0.115c0,0,0.081-0.003,0.258-0.019l0,0c0.176-0.019,0.434-0.048,0.732-0.091l0,0
				c0.626-0.08,1.474-0.236,2.361-0.484l0,0c1.797-0.484,3.635-1.439,4.239-2.698l0,0c0.247-0.495,0.361-1.041,0.276-1.768l0,0
				c-0.127-0.824-0.346-1.006-0.607-1.156l0,0c-0.279-0.152-0.83-0.207-1.567-0.064l0,0c-0.72,0.134-1.581,0.444-2.421,0.832l0,0
				c-1.682,0.765-3.287,1.806-3.892,2.223l0,0c-0.177,0.117-0.267,0.182-0.267,0.182l0,0l-0.5,0.358l-46.446-21.584l-0.66-0.3
				l0.046-0.727c0,0,0.013-0.238,0.013-0.661l0,0c0.006-0.425,0-1.027-0.043-1.704l0,0c-0.08-1.355-0.321-3.049-0.837-4.252l0,0
				c-0.332-0.803-0.768-1.337-1.209-1.562l0,0L2383.703,38.362L2383.703,38.362z M2386.848,46.603l1.059,0.064L2386.848,46.603
				L2386.848,46.603z"/>
		</g>
		<g>
			<path fill="#232020" d="M2390.854,49.413c0,0,4.531-20.021,30.947-16.491l0.949,32.64l-19.928,5.065L2390.854,49.413z"/>
			<path fill="#232020" d="M2392.761,45.461c0,0,15.798,7.416,15.688,23.739l-16.344,4.207
				C2392.106,73.406,2386.238,54.067,2392.761,45.461z"/>
			<path fill="#FFFFFF" d="M2393.17,49.173c0,0,4.301-17.405,25.991-14.418l1.302,29.268l-17.039,4.247L2393.17,49.173z"/>
			<path fill="#B5B7BA" d="M2416.767,34.508l-0.042,27.815l-13.769,5.065l0.468,0.881l17.039-4.247l-1.302-29.268
				C2418.342,34.64,2417.545,34.567,2416.767,34.508z"/>
			<path fill="#232020" d="M2394.454,44.631c0,0,13.668,6.366,14.448,23.288l-15.478,3.564
				C2393.424,71.483,2388.672,53.334,2394.454,44.631z"/>
			<path fill="#FFFFFF" d="M2394.532,46.178c0,0,12.375,6.437,12.249,21.321l-12.761,3.364
				C2394.02,70.863,2388.965,54.473,2394.532,46.178z"/>
			<path fill="#232020" d="M2398.305,52.775c0.412,1.012,0.546,1.907,0.305,2.003c-0.24,0.102-0.764-0.645-1.174-1.655
				c-0.409-1.015-0.548-1.918-0.305-2.009C2397.372,51.018,2397.899,51.756,2398.305,52.775z"/>
			<path fill="#232020" d="M2394.45,53.549c-0.046,1.094,0.127,1.984,0.39,1.994c0.257,0.012,0.5-0.866,0.542-1.955
				c0.041-1.094-0.133-1.987-0.395-1.993C2394.732,51.585,2394.486,52.457,2394.45,53.549z"/>
			<path fill="#B5B7BA" d="M2393.967,70.697c0.032,0.099,0.053,0.166,0.053,0.166l12.761-3.364c0.014-0.514-0.005-1.014-0.029-1.503
				L2393.967,70.697z"/>
			<path fill="#232020" d="M2392.897,71.419c0.006-0.031,0.391-2.017,1.37-4.146l0,0c0.981-2.103,2.53-4.476,5.146-4.963l0,0
				c2.453-0.413,5.309,0.973,8.756,5.18l0,0l-0.617,0.439c-3.349-4.074-6.352-4.873-7.994-4.571l-0.155,0.059
				c-1.348,0.225-2.22,1.594-3.089,3.001l0,0c-0.867,1.39-1.438,3.024-1.746,4.111l0,0c-0.201,0.713-0.295,1.162-0.295,1.162l0,0
				v0.006L2392.897,71.419L2392.897,71.419z"/>
			<g>
				<path fill="#FFFFFF" d="M2410.763,45.233c-0.026,4.319-1.615,7.812-3.558,7.8c-1.936-0.011-3.492-3.525-3.463-7.842
					c0.026-4.319,1.615-7.809,3.557-7.797C2409.237,37.405,2410.79,40.914,2410.763,45.233z"/>
				<path fill="#232020" d="M2407.204,53.618c-1.029-0.01-1.861-0.703-2.466-1.653l0,0c-0.628-0.962-1.077-2.257-1.337-3.749l0,0
					c-0.166-0.939-0.255-1.964-0.246-3.028l0,0c0.016-2.121,0.39-4.052,1.014-5.531l0,0c0.631-1.471,1.502-2.579,2.744-2.819l0,0
					c0.125-0.021,0.26-0.034,0.387-0.034l0,0c1.033,0.019,1.865,0.703,2.469,1.658l0,0c0.623,0.96,1.073,2.251,1.338,3.745l0,0
					c0.163,0.941,0.246,1.965,0.24,3.03l0,0h-0.588h0.588c-0.01,2.116-0.391,4.048-1.008,5.531l0,0
					c-0.637,1.465-1.506,2.574-2.75,2.819l0,0C2407.463,53.607,2407.33,53.618,2407.204,53.618L2407.204,53.618z M2405.246,40.111
					c-0.548,1.3-0.909,3.1-0.915,5.085l0,0c-0.013,0.997,0.067,1.95,0.23,2.816l0,0c0.23,1.382,0.658,2.541,1.15,3.316l0,0
					c0.514,0.787,1.048,1.118,1.494,1.113l0,0c0.063,0,0.124,0,0.186-0.011l0,0c0.569-0.075,1.313-0.802,1.863-2.119l0,0
					c0.551-1.3,0.91-3.099,0.918-5.081l0,0c0.006-1.001-0.07-1.95-0.228-2.819l0,0c-0.237-1.386-0.661-2.541-1.155-3.321l0,0
					c-0.514-0.784-1.051-1.118-1.5-1.111l0,0c-0.057,0-0.117,0.005-0.18,0.016l0,0c-0.011,0-0.021,0.003-0.021,0.003h-0.008
					C2406.513,38.098,2405.786,38.82,2405.246,40.111L2405.246,40.111z"/>
				<path fill="#232020" d="M2410.763,45.233c0.017-2.284-0.414-4.335-1.11-5.766c-1.765,0.41-3.15,3.715-3.177,7.753
					c-0.017,2.277,0.412,4.328,1.107,5.77C2409.346,52.575,2410.737,49.267,2410.763,45.233z"/>
				<path fill="#FFFFFF" d="M2415.733,45.854c-0.104,4.205-1.715,7.577-3.608,7.534c-1.886-0.048-3.329-3.49-3.233-7.692
					c0.1-4.207,1.72-7.577,3.607-7.529C2414.379,38.213,2415.829,41.652,2415.733,45.854z"/>
				<path fill="#232020" d="M2412.111,53.971c-0.979-0.024-1.762-0.685-2.329-1.572l0,0c-0.586-0.909-1.006-2.113-1.252-3.506l0,0
					c-0.174-0.992-0.254-2.078-0.217-3.21l0,0c0.037-2.056,0.439-3.923,1.07-5.354l0,0c0.634-1.418,1.486-2.485,2.701-2.721l0,0
					c0.137-0.021,0.281-0.035,0.422-0.026l0,0c0.979,0.024,1.764,0.676,2.332,1.572l0,0c0.581,0.904,1.004,2.105,1.244,3.503l0,0
					c0.174,0.989,0.254,2.075,0.23,3.211l0,0c-0.051,2.061-0.441,3.918-1.075,5.353l0,0c-0.634,1.417-1.498,2.485-2.702,2.72l0,0
					C2412.395,53.969,2412.258,53.974,2412.111,53.971L2412.111,53.971z M2410.453,40.802c-0.553,1.254-0.933,2.984-0.981,4.904l0,0
					c-0.021,1.062,0.059,2.076,0.215,2.982l0,0c0.225,1.279,0.611,2.357,1.077,3.074l0,0c0.468,0.727,0.96,1.032,1.374,1.037l0,0
					c0.067,0.005,0.132-0.003,0.195-0.016l0,0c0.541-0.067,1.285-0.771,1.83-2.038l0,0c0.557-1.252,0.934-2.985,0.981-4.902l0,0
					c0.024-1.062-0.054-2.076-0.22-2.98l0,0c-0.217-1.281-0.606-2.361-1.072-3.081l0,0c-0.465-0.724-0.96-1.029-1.38-1.034l0,0
					c-0.063,0-0.123,0.005-0.19,0.016l0,0c0,0-0.018,0.003-0.029,0.003l0,0C2411.708,38.865,2410.988,39.561,2410.453,40.802
					L2410.453,40.802z"/>
				<path fill="#232020" d="M2415.733,45.854c0.047-2.217-0.335-4.22-0.984-5.629c-1.718,0.369-3.135,3.562-3.229,7.486
					c-0.059,2.222,0.329,4.228,0.979,5.64C2414.221,52.981,2415.633,49.783,2415.733,45.854z"/>
			</g>
		</g>
	</g>
</g>
</svg>
